<svg width="374" height="49" viewBox="0 0 374 49" fill="none" xmlns="http://www.w3.org/2000/svg">
<path d="M18.056 2.2C22.8347 2.2 26.9733 3.13866 30.472 5.016C34.0133 6.85066 36.7653 9.45333 38.728 12.824C40.6907 16.1947 41.672 20.1627 41.672 24.728C41.672 29.2507 40.6907 33.176 38.728 36.504C36.7653 39.832 34.0133 42.4133 30.472 44.248C26.9733 46.0827 22.8347 47 18.056 47H1.352V2.2H18.056ZM17.8 39.768C22.6213 39.768 26.3333 38.4453 28.936 35.8C31.5387 33.112 32.84 29.4213 32.84 24.728C32.84 19.992 31.5387 16.2587 28.936 13.528C26.3333 10.7973 22.6213 9.432 17.8 9.432H9.992V39.768H17.8ZM79.715 9.432H56.867V20.824H73.955V27.8H56.867V39.768H79.715V47H48.227V2.2H79.715V9.432ZM118.333 2.2H127.549L111.101 47H100.669L84.2845 2.2H93.5005L105.917 38.168L118.333 2.2ZM164.84 9.432H141.992V20.824H159.08V27.8H141.992V39.768H164.84V47H133.352V2.2H164.84V9.432ZM180.93 2.2V39.768H200.898V47H172.29V2.2H180.93ZM227.337 47.448C224.179 47.448 221.214 46.8933 218.441 45.784C215.667 44.6747 213.235 43.1173 211.145 41.112C209.097 39.064 207.475 36.6533 206.281 33.88C205.086 31.064 204.489 27.9707 204.489 24.6C204.489 21.2293 205.086 18.1573 206.281 15.384C207.475 12.6107 209.097 10.2 211.145 8.152C213.235 6.104 215.667 4.52533 218.441 3.416C221.214 2.30666 224.179 1.752 227.337 1.752C230.537 1.752 233.502 2.30666 236.233 3.416C239.006 4.52533 241.438 6.104 243.529 8.152C245.619 10.2 247.241 12.6107 248.393 15.384C249.587 18.1573 250.185 21.2293 250.185 24.6C250.185 27.9707 249.587 31.064 248.393 33.88C247.241 36.6533 245.619 39.064 243.529 41.112C241.438 43.1173 239.006 44.6747 236.233 45.784C233.502 46.8933 230.537 47.448 227.337 47.448ZM227.401 40.088C230.089 40.088 232.478 39.448 234.569 38.168C236.702 36.8453 238.366 35.032 239.561 32.728C240.798 30.424 241.417 27.7147 241.417 24.6C241.417 21.4853 240.798 18.776 239.561 16.472C238.366 14.168 236.702 12.376 234.569 11.096C232.478 9.77333 230.089 9.112 227.401 9.112C224.627 9.112 222.174 9.77333 220.041 11.096C217.95 12.376 216.307 14.168 215.113 16.472C213.918 18.776 213.321 21.4853 213.321 24.6C213.321 27.672 213.918 30.3813 215.113 32.728C216.307 35.0747 217.95 36.888 220.041 38.168C222.174 39.448 224.627 40.088 227.401 40.088ZM274.841 22.68C276.547 22.68 277.955 22.424 279.065 21.912C280.174 21.3573 280.985 20.5893 281.497 19.608C282.051 18.584 282.329 17.3893 282.329 16.024C282.329 13.9333 281.71 12.312 280.473 11.16C279.278 10.008 277.401 9.432 274.841 9.432H265.305V22.68H274.841ZM291.161 16.024C291.161 17.688 290.862 19.352 290.265 21.016C289.667 22.6373 288.729 24.1307 287.449 25.496C286.169 26.8187 284.505 27.8853 282.457 28.696C280.451 29.5067 277.998 29.912 275.097 29.912H265.305V47H256.665V2.2H275.097C278.723 2.2 281.71 2.84 284.057 4.12C286.446 5.35733 288.217 7.04266 289.369 9.176C290.563 11.2667 291.161 13.5493 291.161 16.024ZM329.153 9.432H306.305V20.824H323.393V27.8H306.305V39.768H329.153V47H297.665V2.2H329.153V9.432ZM362.266 16.024C362.266 14.0187 361.647 12.4187 360.41 11.224C359.215 10.0293 357.338 9.432 354.778 9.432H345.242V22.68H354.778C356.485 22.68 357.893 22.424 359.002 21.912C360.111 21.3573 360.922 20.5893 361.434 19.608C361.989 18.584 362.266 17.3893 362.266 16.024ZM355.034 2.2C358.661 2.2 361.647 2.84 363.994 4.12C366.383 5.35733 368.154 7.04266 369.306 9.176C370.501 11.2667 371.098 13.5493 371.098 16.024C371.098 17.688 370.799 19.352 370.202 21.016C369.605 22.6373 368.666 24.1307 367.386 25.496C366.106 26.8187 364.442 27.8853 362.394 28.696C360.389 29.5067 357.935 29.912 355.034 29.912H345.242V47H336.602V2.2H355.034ZM359.898 27.032L371.994 47H362.33L350.746 27.032H359.898Z" fill="#171717"/>
<path d="M30.472 5.016L29.9992 5.89716L30.0056 5.90058L30.012 5.90392L30.472 5.016ZM38.728 12.824L39.5922 12.3208L39.5922 12.3208L38.728 12.824ZM38.728 36.504L39.5894 37.012L39.5894 37.012L38.728 36.504ZM30.472 44.248L30.012 43.3601L30.0076 43.3624L30.472 44.248ZM1.352 47H0.352V48H1.352V47ZM1.352 2.2V1.2H0.352V2.2H1.352ZM28.936 35.8L29.6489 36.5014L29.6544 36.4956L28.936 35.8ZM28.936 13.528L28.2121 14.2179L28.2121 14.2179L28.936 13.528ZM9.992 9.432V8.432H8.992V9.432H9.992ZM9.992 39.768H8.992V40.768H9.992V39.768ZM18.056 2.2V3.2C22.7031 3.2 26.6727 4.11223 29.9992 5.89716L30.472 5.016L30.9448 4.13484C27.2739 2.1651 22.9663 1.2 18.056 1.2V2.2ZM30.472 5.016L30.012 5.90392C33.3888 7.65337 35.9989 10.1244 37.8638 13.3272L38.728 12.824L39.5922 12.3208C37.5318 8.78228 34.6378 6.04796 30.932 4.12808L30.472 5.016ZM38.728 12.824L37.8638 13.3272C39.7234 16.5208 40.672 20.309 40.672 24.728H41.672H42.672C42.672 20.0163 41.658 15.8686 39.5922 12.3208L38.728 12.824ZM41.672 24.728H40.672C40.672 29.1028 39.7241 32.8464 37.8666 35.996L38.728 36.504L39.5894 37.012C41.6573 33.5056 42.672 29.3985 42.672 24.728H41.672ZM38.728 36.504L37.8666 35.996C36.0026 39.1568 33.3922 41.6089 30.012 43.3601L30.472 44.248L30.932 45.1359C34.6345 43.2178 37.5281 40.5072 39.5894 37.012L38.728 36.504ZM30.472 44.248L30.0076 43.3624C26.6793 45.1077 22.7065 46 18.056 46V47V48C22.9628 48 27.2674 47.0576 30.9364 45.1336L30.472 44.248ZM18.056 47V46H1.352V47V48H18.056V47ZM1.352 47H2.352V2.2H1.352H0.352V47H1.352ZM1.352 2.2V3.2H18.056V2.2V1.2H1.352V2.2ZM17.8 39.768V40.768C22.8055 40.768 26.8066 39.3902 29.6488 36.5013L28.936 35.8L28.2232 35.0987C25.8601 37.5005 22.4371 38.768 17.8 38.768V39.768ZM28.936 35.8L29.6544 36.4956C32.4808 33.5766 33.84 29.6116 33.84 24.728H32.84H31.84C31.84 29.231 30.5966 32.6474 28.2176 35.1044L28.936 35.8ZM32.84 24.728H33.84C33.84 19.8038 32.4821 15.7991 29.6599 12.8381L28.936 13.528L28.2121 14.2179C30.5952 16.7182 31.84 20.1802 31.84 24.728H32.84ZM28.936 13.528L29.6599 12.8381C26.8194 9.85791 22.8145 8.432 17.8 8.432V9.432V10.432C22.4282 10.432 25.8473 11.7368 28.2121 14.2179L28.936 13.528ZM17.8 9.432V8.432H9.992V9.432V10.432H17.8V9.432ZM9.992 9.432H8.992V39.768H9.992H10.992V9.432H9.992ZM9.992 39.768V40.768H17.8V39.768V38.768H9.992V39.768ZM79.715 9.432V10.432H80.715V9.432H79.715ZM56.867 9.432V8.432H55.867V9.432H56.867ZM56.867 20.824H55.867V21.824H56.867V20.824ZM73.955 20.824H74.955V19.824H73.955V20.824ZM73.955 27.8V28.8H74.955V27.8H73.955ZM56.867 27.8V26.8H55.867V27.8H56.867ZM56.867 39.768H55.867V40.768H56.867V39.768ZM79.715 39.768H80.715V38.768H79.715V39.768ZM79.715 47V48H80.715V47H79.715ZM48.227 47H47.227V48H48.227V47ZM48.227 2.2V1.2H47.227V2.2H48.227ZM79.715 2.2H80.715V1.2H79.715V2.2ZM79.715 9.432V8.432H56.867V9.432V10.432H79.715V9.432ZM56.867 9.432H55.867V20.824H56.867H57.867V9.432H56.867ZM56.867 20.824V21.824H73.955V20.824V19.824H56.867V20.824ZM73.955 20.824H72.955V27.8H73.955H74.955V20.824H73.955ZM73.955 27.8V26.8H56.867V27.8V28.8H73.955V27.8ZM56.867 27.8H55.867V39.768H56.867H57.867V27.8H56.867ZM56.867 39.768V40.768H79.715V39.768V38.768H56.867V39.768ZM79.715 39.768H78.715V47H79.715H80.715V39.768H79.715ZM79.715 47V46H48.227V47V48H79.715V47ZM48.227 47H49.227V2.2H48.227H47.227V47H48.227ZM48.227 2.2V3.2H79.715V2.2V1.2H48.227V2.2ZM79.715 2.2H78.715V9.432H79.715H80.715V2.2H79.715ZM118.333 2.2V1.2H117.62L117.387 1.8737L118.333 2.2ZM127.549 2.2L128.487 2.54465L128.981 1.2H127.549V2.2ZM111.101 47V48H111.799L112.039 47.3446L111.101 47ZM100.669 47L99.7293 47.3435L99.9694 48H100.669V47ZM84.2845 2.2V1.2H82.854L83.3453 2.54346L84.2845 2.2ZM93.5005 2.2L94.4458 1.8737L94.2132 1.2H93.5005V2.2ZM105.917 38.168L104.971 38.4943L105.917 41.2326L106.862 38.4943L105.917 38.168ZM118.333 2.2V3.2H127.549V2.2V1.2H118.333V2.2ZM127.549 2.2L126.61 1.85535L110.162 46.6554L111.101 47L112.039 47.3446L128.487 2.54465L127.549 2.2ZM111.101 47V46H100.669V47V48H111.101V47ZM100.669 47L101.608 46.6565L85.2237 1.85653L84.2845 2.2L83.3453 2.54346L99.7293 47.3435L100.669 47ZM84.2845 2.2V3.2H93.5005V2.2V1.2H84.2845V2.2ZM93.5005 2.2L92.5552 2.5263L104.971 38.4943L105.917 38.168L106.862 37.8417L94.4458 1.8737L93.5005 2.2ZM105.917 38.168L106.862 38.4943L119.278 2.5263L118.333 2.2L117.387 1.8737L104.971 37.8417L105.917 38.168ZM164.84 9.432V10.432H165.84V9.432H164.84ZM141.992 9.432V8.432H140.992V9.432H141.992ZM141.992 20.824H140.992V21.824H141.992V20.824ZM159.08 20.824H160.08V19.824H159.08V20.824ZM159.08 27.8V28.8H160.08V27.8H159.08ZM141.992 27.8V26.8H140.992V27.8H141.992ZM141.992 39.768H140.992V40.768H141.992V39.768ZM164.84 39.768H165.84V38.768H164.84V39.768ZM164.84 47V48H165.84V47H164.84ZM133.352 47H132.352V48H133.352V47ZM133.352 2.2V1.2H132.352V2.2H133.352ZM164.84 2.2H165.84V1.2H164.84V2.2ZM164.84 9.432V8.432H141.992V9.432V10.432H164.84V9.432ZM141.992 9.432H140.992V20.824H141.992H142.992V9.432H141.992ZM141.992 20.824V21.824H159.08V20.824V19.824H141.992V20.824ZM159.08 20.824H158.08V27.8H159.08H160.08V20.824H159.08ZM159.08 27.8V26.8H141.992V27.8V28.8H159.08V27.8ZM141.992 27.8H140.992V39.768H141.992H142.992V27.8H141.992ZM141.992 39.768V40.768H164.84V39.768V38.768H141.992V39.768ZM164.84 39.768H163.84V47H164.84H165.84V39.768H164.84ZM164.84 47V46H133.352V47V48H164.84V47ZM133.352 47H134.352V2.2H133.352H132.352V47H133.352ZM133.352 2.2V3.2H164.84V2.2V1.2H133.352V2.2ZM164.84 2.2H163.84V9.432H164.84H165.84V2.2H164.84ZM180.93 2.2H181.93V1.2H180.93V2.2ZM180.93 39.768H179.93V40.768H180.93V39.768ZM200.898 39.768H201.898V38.768H200.898V39.768ZM200.898 47V48H201.898V47H200.898ZM172.29 47H171.29V48H172.29V47ZM172.29 2.2V1.2H171.29V2.2H172.29ZM180.93 2.2H179.93V39.768H180.93H181.93V2.2H180.93ZM180.93 39.768V40.768H200.898V39.768V38.768H180.93V39.768ZM200.898 39.768H199.898V47H200.898H201.898V39.768H200.898ZM200.898 47V46H172.29V47V48H200.898V47ZM172.29 47H173.29V2.2H172.29H171.29V47H172.29ZM172.29 2.2V3.2H180.93V2.2V1.2H172.29V2.2ZM218.441 45.784L218.812 44.8555L218.441 45.784ZM211.145 41.112L210.437 41.8191L210.445 41.8265L210.452 41.8337L211.145 41.112ZM206.281 33.88L205.36 34.2706L205.362 34.2756L206.281 33.88ZM206.281 15.384L205.362 14.9884L206.281 15.384ZM211.145 8.152L210.445 7.4376L210.437 7.44489L211.145 8.152ZM218.441 3.416L218.069 2.48752L218.069 2.48752L218.441 3.416ZM236.233 3.416L235.856 4.34248L235.861 4.34447L236.233 3.416ZM243.529 8.152L244.228 7.43764L244.228 7.43764L243.529 8.152ZM248.393 15.384L247.469 15.7676L247.474 15.7796L248.393 15.384ZM248.393 33.88L247.472 33.4894L247.469 33.4964L248.393 33.88ZM243.529 41.112L244.221 41.8337L244.228 41.8264L243.529 41.112ZM236.233 45.784L235.861 44.8555L235.856 44.8575L236.233 45.784ZM234.569 38.168L235.091 39.0209L235.095 39.0179L234.569 38.168ZM239.561 32.728L238.68 32.2549L238.676 32.2613L238.673 32.2677L239.561 32.728ZM239.561 16.472L238.673 16.9323L238.676 16.9387L238.68 16.9451L239.561 16.472ZM234.569 11.096L234.034 11.9411L234.044 11.9474L234.054 11.9535L234.569 11.096ZM220.041 11.096L220.563 11.9489L220.567 11.9459L220.041 11.096ZM215.113 16.472L214.225 16.0117L214.225 16.0117L215.113 16.472ZM215.113 32.728L214.221 33.1817L214.221 33.1817L215.113 32.728ZM220.041 38.168L219.518 39.0209L219.526 39.0255L220.041 38.168ZM227.337 47.448V46.448C224.299 46.448 221.46 45.915 218.812 44.8555L218.441 45.784L218.069 46.7125C220.967 47.8717 224.059 48.448 227.337 48.448V47.448ZM218.441 45.784L218.812 44.8555C216.154 43.7924 213.832 42.304 211.837 40.3903L211.145 41.112L210.452 41.8337C212.639 43.9307 215.18 45.557 218.069 46.7125L218.441 45.784ZM211.145 41.112L211.852 40.4049C209.897 38.4502 208.346 36.1465 207.199 33.4844L206.281 33.88L205.362 34.2756C206.605 37.1602 208.296 39.6778 210.437 41.8191L211.145 41.112ZM206.281 33.88L207.201 33.4894C206.064 30.809 205.489 27.8502 205.489 24.6H204.489H203.489C203.489 28.0911 204.108 31.319 205.36 34.2705L206.281 33.88ZM204.489 24.6H205.489C205.489 21.3495 206.064 18.4142 207.199 15.7796L206.281 15.384L205.362 14.9884C204.108 17.9004 203.489 21.1091 203.489 24.6H204.489ZM206.281 15.384L207.199 15.7796C208.346 13.1175 209.897 10.8138 211.852 8.8591L211.145 8.152L210.437 7.44489C208.296 9.5862 206.605 12.1038 205.362 14.9884L206.281 15.384ZM211.145 8.152L211.844 8.86636C213.839 6.91263 216.158 5.40584 218.812 4.34447L218.441 3.416L218.069 2.48752C215.176 3.64483 212.632 5.29537 210.445 7.43764L211.145 8.152ZM218.441 3.416L218.812 4.34447C221.46 3.28505 224.299 2.752 227.337 2.752V1.752V0.751999C224.059 0.751999 220.967 1.32828 218.069 2.48752L218.441 3.416ZM227.337 1.752V2.752C230.419 2.752 233.255 3.28572 235.856 4.34246L236.233 3.416L236.609 2.48953C233.749 1.32761 230.654 0.751999 227.337 0.751999V1.752ZM236.233 3.416L235.861 4.34447C238.515 5.40584 240.834 6.91263 242.829 8.86636L243.529 8.152L244.228 7.43764C242.041 5.29537 239.497 3.64483 236.604 2.48752L236.233 3.416ZM243.529 8.152L242.829 8.86635C244.821 10.8178 246.367 13.1151 247.469 15.7676L248.393 15.384L249.316 15.0004C248.114 12.1062 246.418 9.58221 244.228 7.43764L243.529 8.152ZM248.393 15.384L247.474 15.7796C248.609 18.4142 249.185 21.3495 249.185 24.6H250.185H251.185C251.185 21.1091 250.565 17.9004 249.311 14.9884L248.393 15.384ZM250.185 24.6H249.185C249.185 27.8502 248.609 30.809 247.472 33.4894L248.393 33.88L249.313 34.2705C250.565 31.319 251.185 28.0911 251.185 24.6H250.185ZM248.393 33.88L247.469 33.4964C246.367 36.1489 244.821 38.4462 242.829 40.3976L243.529 41.112L244.228 41.8264C246.418 39.6818 248.114 37.1578 249.316 34.2636L248.393 33.88ZM243.529 41.112L242.836 40.3903C240.841 42.304 238.519 43.7924 235.861 44.8555L236.233 45.784L236.604 46.7125C239.493 45.557 242.034 43.9307 244.221 41.8337L243.529 41.112ZM236.233 45.784L235.856 44.8575C233.255 45.9143 230.419 46.448 227.337 46.448V47.448V48.448C230.654 48.448 233.749 47.8724 236.609 46.7105L236.233 45.784ZM227.401 40.088V41.088C230.254 41.088 232.828 40.4062 235.091 39.0209L234.569 38.168L234.046 37.3151C232.128 38.4898 229.923 39.088 227.401 39.088V40.088ZM234.569 38.168L235.095 39.0179C237.387 37.5969 239.174 35.6466 240.448 33.1883L239.561 32.728L238.673 32.2677C237.558 34.4174 236.016 36.0937 234.042 37.3181L234.569 38.168ZM239.561 32.728L240.441 33.2011C241.771 30.7263 242.417 27.8483 242.417 24.6H241.417H240.417C240.417 27.581 239.825 30.1217 238.68 32.2549L239.561 32.728ZM241.417 24.6H242.417C242.417 21.3517 241.771 18.4737 240.441 15.9989L239.561 16.472L238.68 16.9451C239.825 19.0783 240.417 21.619 240.417 24.6H241.417ZM239.561 16.472L240.448 16.0117C239.172 13.5507 237.382 11.618 235.083 10.2385L234.569 11.096L234.054 11.9535C236.022 13.134 237.559 14.7853 238.673 16.9323L239.561 16.472ZM234.569 11.096L235.103 10.2509C232.839 8.81832 230.261 8.112 227.401 8.112V9.112V10.112C229.916 10.112 232.117 10.7283 234.034 11.9411L234.569 11.096ZM227.401 9.112V8.112C224.461 8.112 221.821 8.81521 219.514 10.2461L220.041 11.096L220.567 11.9459C222.526 10.7315 224.793 10.112 227.401 10.112V9.112ZM220.041 11.096L219.518 10.2431C217.263 11.6239 215.498 13.5559 214.225 16.0117L215.113 16.472L216 16.9323C217.116 14.7801 218.637 13.1281 220.563 11.9488L220.041 11.096ZM215.113 16.472L214.225 16.0117C212.943 18.4837 212.321 21.3569 212.321 24.6H213.321H214.321C214.321 21.6137 214.893 19.0683 216 16.9323L215.113 16.472ZM213.321 24.6H212.321C212.321 27.8034 212.944 30.6728 214.221 33.1817L215.113 32.728L216.004 32.2743C214.892 30.0899 214.321 27.5406 214.321 24.6H213.321ZM215.113 32.728L214.221 33.1817C215.493 35.6802 217.258 37.6372 219.518 39.0209L220.041 38.168L220.563 37.3151C218.641 36.1388 217.121 34.4691 216.004 32.2743L215.113 32.728ZM220.041 38.168L219.526 39.0255C221.832 40.4091 224.467 41.088 227.401 41.088V40.088V39.088C224.787 39.088 222.516 38.4869 220.555 37.3105L220.041 38.168ZM279.065 21.912L279.484 22.82L279.498 22.8134L279.512 22.8064L279.065 21.912ZM281.497 19.608L280.617 19.1317L280.614 19.1385L280.61 19.1454L281.497 19.608ZM280.473 11.16L279.778 11.8798L279.785 11.8859L279.791 11.8919L280.473 11.16ZM265.305 9.432V8.432H264.305V9.432H265.305ZM265.305 22.68H264.305V23.68H265.305V22.68ZM290.265 21.016L291.203 21.3617L291.206 21.3539L290.265 21.016ZM287.449 25.496L288.167 26.1914L288.173 26.1857L288.178 26.1799L287.449 25.496ZM282.457 28.696L282.088 27.7662L282.082 27.7689L282.457 28.696ZM265.305 29.912V28.912H264.305V29.912H265.305ZM265.305 47V48H266.305V47H265.305ZM256.665 47H255.665V48H256.665V47ZM256.665 2.2V1.2H255.665V2.2H256.665ZM284.057 4.12L283.578 4.99789L283.587 5.00305L283.597 5.00799L284.057 4.12ZM289.369 9.176L288.489 9.65115L288.494 9.66171L288.5 9.67214L289.369 9.176ZM274.841 22.68V23.68C276.638 23.68 278.202 23.4117 279.484 22.82L279.065 21.912L278.645 21.004C277.709 21.4363 276.456 21.68 274.841 21.68V22.68ZM279.065 21.912L279.512 22.8064C280.786 22.1695 281.762 21.2607 282.383 20.0706L281.497 19.608L280.61 19.1454C280.207 19.9179 279.562 20.5452 278.617 21.0176L279.065 21.912ZM281.497 19.608L282.376 20.0843C283.022 18.8907 283.329 17.5269 283.329 16.024H282.329H281.329C281.329 17.2518 281.08 18.2773 280.617 19.1317L281.497 19.608ZM282.329 16.024H283.329C283.329 13.7262 282.641 11.8124 281.154 10.4281L280.473 11.16L279.791 11.8919C280.779 12.8115 281.329 14.1405 281.329 16.024H282.329ZM280.473 11.16L281.167 10.4402C279.706 9.03191 277.523 8.432 274.841 8.432V9.432V10.432C277.278 10.432 278.849 10.9841 279.778 11.8798L280.473 11.16ZM274.841 9.432V8.432H265.305V9.432V10.432H274.841V9.432ZM265.305 9.432H264.305V22.68H265.305H266.305V9.432H265.305ZM265.305 22.68V23.68H274.841V22.68V21.68H265.305V22.68ZM291.161 16.024H290.161C290.161 17.5658 289.884 19.1157 289.323 20.6781L290.265 21.016L291.206 21.3539C291.839 19.5883 292.161 17.8102 292.161 16.024H291.161ZM290.265 21.016L289.326 20.6703C288.779 22.1559 287.915 23.5362 286.719 24.8121L287.449 25.496L288.178 26.1799C289.542 24.7252 290.556 23.1187 291.203 21.3617L290.265 21.016ZM287.449 25.496L286.73 24.8006C285.566 26.003 284.03 26.9977 282.088 27.7662L282.457 28.696L282.825 29.6258C284.979 28.7729 286.771 27.6343 288.167 26.1914L287.449 25.496ZM282.457 28.696L282.082 27.7689C280.229 28.518 277.911 28.912 275.097 28.912V29.912V30.912C278.085 30.912 280.674 30.4953 282.831 29.6231L282.457 28.696ZM275.097 29.912V28.912H265.305V29.912V30.912H275.097V29.912ZM265.305 29.912H264.305V47H265.305H266.305V29.912H265.305ZM265.305 47V46H256.665V47V48H265.305V47ZM256.665 47H257.665V2.2H256.665H255.665V47H256.665ZM256.665 2.2V3.2H275.097V2.2V1.2H256.665V2.2ZM275.097 2.2V3.2C278.613 3.2 281.421 3.82151 283.578 4.99789L284.057 4.12L284.535 3.2421C281.999 1.85849 278.833 1.2 275.097 1.2V2.2ZM284.057 4.12L283.597 5.00799C285.828 6.16355 287.442 7.71365 288.489 9.65115L289.369 9.176L290.248 8.70085C288.991 6.37168 287.064 4.55111 284.516 3.232L284.057 4.12ZM289.369 9.176L288.5 9.67214C289.606 11.6074 290.161 13.7183 290.161 16.024H291.161H292.161C292.161 13.3803 291.52 10.9259 290.237 8.67986L289.369 9.176ZM329.153 9.432V10.432H330.153V9.432H329.153ZM306.305 9.432V8.432H305.305V9.432H306.305ZM306.305 20.824H305.305V21.824H306.305V20.824ZM323.393 20.824H324.393V19.824H323.393V20.824ZM323.393 27.8V28.8H324.393V27.8H323.393ZM306.305 27.8V26.8H305.305V27.8H306.305ZM306.305 39.768H305.305V40.768H306.305V39.768ZM329.153 39.768H330.153V38.768H329.153V39.768ZM329.153 47V48H330.153V47H329.153ZM297.665 47H296.665V48H297.665V47ZM297.665 2.2V1.2H296.665V2.2H297.665ZM329.153 2.2H330.153V1.2H329.153V2.2ZM329.153 9.432V8.432H306.305V9.432V10.432H329.153V9.432ZM306.305 9.432H305.305V20.824H306.305H307.305V9.432H306.305ZM306.305 20.824V21.824H323.393V20.824V19.824H306.305V20.824ZM323.393 20.824H322.393V27.8H323.393H324.393V20.824H323.393ZM323.393 27.8V26.8H306.305V27.8V28.8H323.393V27.8ZM306.305 27.8H305.305V39.768H306.305H307.305V27.8H306.305ZM306.305 39.768V40.768H329.153V39.768V38.768H306.305V39.768ZM329.153 39.768H328.153V47H329.153H330.153V39.768H329.153ZM329.153 47V46H297.665V47V48H329.153V47ZM297.665 47H298.665V2.2H297.665H296.665V47H297.665ZM297.665 2.2V3.2H329.153V2.2V1.2H297.665V2.2ZM329.153 2.2H328.153V9.432H329.153H330.153V2.2H329.153ZM360.41 11.224L359.703 11.9311L359.709 11.9373L359.715 11.9434L360.41 11.224ZM345.242 9.432V8.432H344.242V9.432H345.242ZM345.242 22.68H344.242V23.68H345.242V22.68ZM359.002 21.912L359.421 22.82L359.435 22.8134L359.449 22.8064L359.002 21.912ZM361.434 19.608L360.555 19.1317L360.551 19.1385L360.547 19.1454L361.434 19.608ZM363.994 4.12L363.515 4.99789L363.525 5.00305L363.534 5.00799L363.994 4.12ZM369.306 9.176L368.426 9.65115L368.432 9.66171L368.438 9.67214L369.306 9.176ZM370.202 21.016L371.14 21.3617L371.143 21.3539L370.202 21.016ZM367.386 25.496L368.105 26.1914L368.11 26.1857L368.116 26.1799L367.386 25.496ZM362.394 28.696L362.026 27.7662L362.019 27.7689L362.394 28.696ZM345.242 29.912V28.912H344.242V29.912H345.242ZM345.242 47V48H346.242V47H345.242ZM336.602 47H335.602V48H336.602V47ZM336.602 2.2V1.2H335.602V2.2H336.602ZM359.898 27.032L360.753 26.5139L360.461 26.032H359.898V27.032ZM371.994 47V48H373.769L372.849 46.4819L371.994 47ZM362.33 47L361.465 47.5018L361.754 48H362.33V47ZM350.746 27.032V26.032H349.01L349.881 27.5338L350.746 27.032ZM362.266 16.024H363.266C363.266 13.7963 362.57 11.9192 361.105 10.5046L360.41 11.224L359.715 11.9434C360.725 12.9182 361.266 14.2411 361.266 16.024H362.266ZM360.41 11.224L361.117 10.5169C359.657 9.05723 357.469 8.432 354.778 8.432V9.432V10.432C357.207 10.432 358.773 11.0014 359.703 11.9311L360.41 11.224ZM354.778 9.432V8.432H345.242V9.432V10.432H354.778V9.432ZM345.242 9.432H344.242V22.68H345.242H346.242V9.432H345.242ZM345.242 22.68V23.68H354.778V22.68V21.68H345.242V22.68ZM354.778 22.68V23.68C356.576 23.68 358.139 23.4117 359.421 22.82L359.002 21.912L358.583 21.004C357.646 21.4363 356.394 21.68 354.778 21.68V22.68ZM359.002 21.912L359.449 22.8064C360.723 22.1695 361.7 21.2607 362.321 20.0706L361.434 19.608L360.547 19.1454C360.144 19.9179 359.5 20.5452 358.555 21.0176L359.002 21.912ZM361.434 19.608L362.313 20.0843C362.96 18.8907 363.266 17.5269 363.266 16.024H362.266H361.266C361.266 17.2518 361.018 18.2773 360.555 19.1317L361.434 19.608ZM355.034 2.2V3.2C358.55 3.2 361.358 3.82151 363.515 4.99789L363.994 4.12L364.473 3.2421C361.936 1.85849 358.771 1.2 355.034 1.2V2.2ZM363.994 4.12L363.534 5.00799C365.766 6.16355 367.38 7.71365 368.426 9.65115L369.306 9.176L370.186 8.70085C368.928 6.37168 367.001 4.55111 364.454 3.232L363.994 4.12ZM369.306 9.176L368.438 9.67214C369.544 11.6074 370.098 13.7183 370.098 16.024H371.098H372.098C372.098 13.3803 371.458 10.9259 370.174 8.67986L369.306 9.176ZM371.098 16.024H370.098C370.098 17.5658 369.822 19.1157 369.261 20.6781L370.202 21.016L371.143 21.3539C371.777 19.5883 372.098 17.8102 372.098 16.024H371.098ZM370.202 21.016L369.264 20.6703C368.716 22.1559 367.853 23.5362 366.656 24.8121L367.386 25.496L368.116 26.1799C369.479 24.7252 370.493 23.1187 371.14 21.3617L370.202 21.016ZM367.386 25.496L366.667 24.8006C365.504 26.003 363.967 26.9977 362.026 27.7662L362.394 28.696L362.762 29.6258C364.917 28.7729 366.708 27.6343 368.105 26.1914L367.386 25.496ZM362.394 28.696L362.019 27.7689C360.166 28.518 357.848 28.912 355.034 28.912V29.912V30.912C358.022 30.912 360.611 30.4953 362.769 29.6231L362.394 28.696ZM355.034 29.912V28.912H345.242V29.912V30.912H355.034V29.912ZM345.242 29.912H344.242V47H345.242H346.242V29.912H345.242ZM345.242 47V46H336.602V47V48H345.242V47ZM336.602 47H337.602V2.2H336.602H335.602V47H336.602ZM336.602 2.2V3.2H355.034V2.2V1.2H336.602V2.2ZM359.898 27.032L359.043 27.5501L371.139 47.5181L371.994 47L372.849 46.4819L360.753 26.5139L359.898 27.032ZM371.994 47V46H362.33V47V48H371.994V47ZM362.33 47L363.195 46.4982L351.611 26.5302L350.746 27.032L349.881 27.5338L361.465 47.5018L362.33 47ZM350.746 27.032V28.032H359.898V27.032V26.032H350.746V27.032Z" fill="#171717"/>
</svg>
