<svg xmlns="http://www.w3.org/2000/svg" fill="none" viewBox="0.16 0.2 145.86 45.8">
<path d="M24 46H13.824L1.472 1.2H10.752L18.944 36.016L27.904 1.2H37.632L46.464 35.888L54.72 1.2H64L51.584 46H41.472L32.768 13.872L24 46ZM101.34 8.432H78.492V19.824H95.58V26.8H78.492V38.768H101.34V46H69.852V1.2H101.34V8.432ZM135.222 14.128C135.222 12.2507 134.624 10.8427 133.43 9.904C132.235 8.92267 130.55 8.432 128.374 8.432H117.43V19.76H128.31C130.486 19.76 132.171 19.2907 133.366 18.352C134.603 17.3707 135.222 15.9627 135.222 14.128ZM108.79 46V1.2H129.59C132.704 1.2 135.328 1.73333 137.462 2.8C139.595 3.824 141.195 5.232 142.262 7.024C143.371 8.77333 143.926 10.7573 143.926 12.976C143.926 14.9387 143.563 16.6027 142.838 17.968C142.112 19.3333 141.11 20.4213 139.83 21.232C138.592 22 137.163 22.5333 135.542 22.832V23.344C137.504 23.6 139.19 24.1547 140.597 25.008C142.006 25.8187 143.094 26.9707 143.862 28.464C144.63 29.9573 145.014 31.7707 145.014 33.904C145.014 36.2507 144.438 38.3413 143.286 40.176C142.134 41.968 140.448 43.3973 138.229 44.464C136.054 45.488 133.43 46 130.358 46H108.79ZM117.43 38.768H129.206C131.467 38.768 133.216 38.2773 134.454 37.296C135.734 36.272 136.374 34.8 136.374 32.88C136.374 30.8747 135.691 29.36 134.326 28.336C133.003 27.312 131.232 26.8 129.014 26.8H117.43V38.768Z" fill="#171717"/>
<path d="M24 46V47H24.7637L24.9647 46.2633L24 46ZM13.824 46L12.86 46.2658L13.0624 47H13.824V46ZM1.472 1.2V0.199997H0.158973L0.507971 1.46579L1.472 1.2ZM10.752 1.2L11.7254 0.970958L11.544 0.199997H10.752V1.2ZM18.944 36.016L17.9706 36.245L19.9124 36.2652L18.944 36.016ZM27.904 1.2V0.199997H27.1288L26.9356 0.950765L27.904 1.2ZM37.632 1.2L38.6011 0.953257L38.4093 0.199997H37.632V1.2ZM46.464 35.888L45.4949 36.1347L47.4368 36.1195L46.464 35.888ZM54.72 1.2V0.199997H53.9301L53.7472 0.968457L54.72 1.2ZM64 1.2L64.9637 1.46707L65.3148 0.199997H64V1.2ZM51.584 46V47H52.3446L52.5477 46.2671L51.584 46ZM41.472 46L40.5068 46.2615L40.7069 47H41.472V46ZM32.768 13.872L33.7332 13.6105L32.7715 10.0608L31.8033 13.6087L32.768 13.872ZM24 46V45H13.824V46V47H24V46ZM13.824 46L14.788 45.7342L2.43603 0.9342L1.472 1.2L0.507971 1.46579L12.86 46.2658L13.824 46ZM1.472 1.2V2.2H10.752V1.2V0.199997H1.472V1.2ZM10.752 1.2L9.77858 1.42904L17.9706 36.245L18.944 36.016L19.9174 35.787L11.7254 0.970958L10.752 1.2ZM18.944 36.016L19.9124 36.2652L28.8724 1.44923L27.904 1.2L26.9356 0.950765L17.9756 35.7668L18.944 36.016ZM27.904 1.2V2.2H37.632V1.2V0.199997H27.904V1.2ZM37.632 1.2L36.6629 1.44674L45.4949 36.1347L46.464 35.888L47.4331 35.6413L38.6011 0.953257L37.632 1.2ZM46.464 35.888L47.4368 36.1195L55.6928 1.43154L54.72 1.2L53.7472 0.968457L45.4912 35.6565L46.464 35.888ZM54.72 1.2V2.2H64V1.2V0.199997H54.72V1.2ZM64 1.2L63.0363 0.932921L50.6203 45.7329L51.584 46L52.5477 46.2671L64.9637 1.46707L64 1.2ZM51.584 46V45H41.472V46V47H51.584V46ZM41.472 46L42.4372 45.7385L33.7332 13.6105L32.768 13.872L31.8028 14.1335L40.5068 46.2615L41.472 46ZM32.768 13.872L31.8033 13.6087L23.0353 45.7367L24 46L24.9647 46.2633L33.7327 14.1353L32.768 13.872ZM101.34 8.432V9.432H102.34V8.432H101.34ZM78.492 8.432V7.432H77.492V8.432H78.492ZM78.492 19.824H77.492V20.824H78.492V19.824ZM95.58 19.824H96.58V18.824H95.58V19.824ZM95.58 26.8V27.8H96.58V26.8H95.58ZM78.492 26.8V25.8H77.492V26.8H78.492ZM78.492 38.768H77.492V39.768H78.492V38.768ZM101.34 38.768H102.34V37.768H101.34V38.768ZM101.34 46V47H102.34V46H101.34ZM69.852 46H68.852V47H69.852V46ZM69.852 1.2V0.199997H68.852V1.2H69.852ZM101.34 1.2H102.34V0.199997H101.34V1.2ZM101.34 8.432V7.432H78.492V8.432V9.432H101.34V8.432ZM78.492 8.432H77.492V19.824H78.492H79.492V8.432H78.492ZM78.492 19.824V20.824H95.58V19.824V18.824H78.492V19.824ZM95.58 19.824H94.58V26.8H95.58H96.58V19.824H95.58ZM95.58 26.8V25.8H78.492V26.8V27.8H95.58V26.8ZM78.492 26.8H77.492V38.768H78.492H79.492V26.8H78.492ZM78.492 38.768V39.768H101.34V38.768V37.768H78.492V38.768ZM101.34 38.768H100.34V46H101.34H102.34V38.768H101.34ZM101.34 46V45H69.852V46V47H101.34V46ZM69.852 46H70.852V1.2H69.852H68.852V46H69.852ZM69.852 1.2V2.2H101.34V1.2V0.199997H69.852V1.2ZM101.34 1.2H100.34V8.432H101.34H102.34V1.2H101.34ZM133.43 9.904L132.795 10.6767L132.803 10.6836L132.812 10.6903L133.43 9.904ZM117.43 8.432V7.432H116.43V8.432H117.43ZM117.43 19.76H116.43V20.76H117.43V19.76ZM133.366 18.352L133.983 19.1383L133.987 19.1355L133.366 18.352ZM108.79 46H107.79V47H108.79V46ZM108.79 1.2V0.199997H107.79V1.2H108.79ZM137.462 2.8L137.014 3.69443L137.022 3.69803L137.029 3.70152L137.462 2.8ZM142.262 7.024L141.402 7.53548L141.409 7.54762L141.417 7.55954L142.262 7.024ZM139.83 21.232L140.357 22.0817L140.365 22.0768L139.83 21.232ZM135.542 22.832L135.36 21.8485L134.542 21.9994V22.832H135.542ZM135.542 23.344H134.542V24.222L135.412 24.3356L135.542 23.344ZM140.597 25.008L140.079 25.8632L140.089 25.869L140.099 25.8746L140.597 25.008ZM143.862 28.464L144.751 28.0067L144.751 28.0067L143.862 28.464ZM143.286 40.176L144.127 40.7168L144.132 40.7078L143.286 40.176ZM138.229 44.464L138.655 45.3688L138.663 45.3653L138.229 44.464ZM117.43 38.768H116.43V39.768H117.43V38.768ZM134.454 37.296L135.075 38.0795L135.078 38.0769L134.454 37.296ZM134.326 28.336L133.713 29.1267L133.719 29.1314L133.726 29.136L134.326 28.336ZM117.43 26.8V25.8H116.43V26.8H117.43ZM135.222 14.128H136.222C136.222 12.0236 135.54 10.2903 134.047 9.11768L133.43 9.904L132.812 10.6903C133.709 11.395 134.222 12.4777 134.222 14.128H135.222ZM133.43 9.904L134.064 9.13127C132.63 7.95321 130.688 7.432 128.374 7.432V8.432V9.432C130.411 9.432 131.84 9.89212 132.795 10.6767L133.43 9.904ZM128.374 8.432V7.432H117.43V8.432V9.432H128.374V8.432ZM117.43 8.432H116.43V19.76H117.43H118.43V8.432H117.43ZM117.43 19.76V20.76H128.31V19.76V18.76H117.43V19.76ZM128.31 19.76V20.76C130.615 20.76 132.55 20.2641 133.983 19.1383L133.366 18.352L132.748 17.5657C131.791 18.3172 130.356 18.76 128.31 18.76V19.76ZM133.366 18.352L133.987 19.1355C135.504 17.9325 136.222 16.2124 136.222 14.128H135.222H134.222C134.222 15.7129 133.702 16.8089 132.744 17.5685L133.366 18.352ZM108.79 46H109.79V1.2H108.79H107.79V46H108.79ZM108.79 1.2V2.2H129.59V1.2V0.199997H108.79V1.2ZM129.59 1.2V2.2C132.595 2.2 135.056 2.71509 137.014 3.69443L137.462 2.8L137.909 1.90557C135.601 0.751572 132.814 0.199997 129.59 0.199997V1.2ZM137.462 2.8L137.029 3.70152C139.009 4.65217 140.449 5.93472 141.402 7.53548L142.262 7.024L143.121 6.51251C141.94 4.52927 140.18 2.99582 137.894 1.89848L137.462 2.8ZM142.262 7.024L141.417 7.55954C142.417 9.13723 142.926 10.9329 142.926 12.976H143.926H144.926C144.926 10.5818 144.324 8.40943 143.106 6.48846L142.262 7.024ZM143.926 12.976H142.926C142.926 14.8181 142.585 16.3117 141.954 17.4988L142.838 17.968L143.721 18.4372C144.541 16.8936 144.926 15.0592 144.926 12.976H143.926ZM142.838 17.968L141.954 17.4988C141.309 18.7141 140.425 19.6714 139.294 20.3872L139.83 21.232L140.365 22.0768C141.794 21.1713 142.916 19.9525 143.721 18.4372L142.838 17.968ZM139.83 21.232L139.302 20.3824C138.184 21.0764 136.875 21.5695 135.36 21.8485L135.542 22.832L135.723 23.8155C137.451 23.4971 139 22.9236 140.357 22.0816L139.83 21.232ZM135.542 22.832H134.542V23.344H135.542H136.542V22.832H135.542ZM135.542 23.344L135.412 24.3356C137.264 24.5772 138.811 25.0949 140.079 25.8632L140.597 25.008L141.116 24.1528C139.568 23.2145 137.744 22.6228 135.671 22.3524L135.542 23.344ZM140.597 25.008L140.099 25.8746C141.334 26.5859 142.289 27.5931 142.972 28.9213L143.862 28.464L144.751 28.0067C143.898 26.3482 142.677 25.0514 141.096 24.1414L140.597 25.008ZM143.862 28.464L142.972 28.9213C143.65 30.2401 144.014 31.8879 144.014 33.904H145.014H146.014C146.014 31.6535 145.609 29.6745 144.751 28.0067L143.862 28.464ZM145.014 33.904H144.014C144.014 36.0788 143.482 37.9821 142.439 39.6442L143.286 40.176L144.132 40.7078C145.393 38.7005 146.014 36.4225 146.014 33.904H145.014ZM143.286 40.176L142.444 39.6352C141.407 41.2487 139.875 42.5635 137.796 43.5627L138.229 44.464L138.663 45.3653C141.022 44.2311 142.86 42.6873 144.127 40.7168L143.286 40.176ZM138.229 44.464L137.804 43.5592C135.792 44.5056 133.322 45 130.358 45V46V47C133.537 47 136.315 46.4704 138.655 45.3688L138.229 44.464ZM130.358 46V45H108.79V46V47H130.358V46ZM117.43 38.768V39.768H129.206V38.768V37.768H117.43V38.768ZM129.206 38.768V39.768C131.598 39.768 133.599 39.2504 135.075 38.0795L134.454 37.296L133.832 36.5125C132.834 37.3043 131.336 37.768 129.206 37.768V38.768ZM134.454 37.296L135.078 38.0769C136.637 36.8295 137.374 35.0455 137.374 32.88H136.374H135.374C135.374 34.5545 134.83 35.7145 133.829 36.5151L134.454 37.296ZM136.374 32.88H137.374C137.374 30.6222 136.589 28.7834 134.926 27.536L134.326 28.336L133.726 29.136C134.793 29.9366 135.374 31.1271 135.374 32.88H136.374ZM134.326 28.336L134.938 27.5453C133.39 26.3472 131.382 25.8 129.014 25.8V26.8V27.8C131.083 27.8 132.616 28.2768 133.713 29.1267L134.326 28.336ZM129.014 26.8V25.8H117.43V26.8V27.8H129.014V26.8ZM117.43 26.8H116.43V38.768H117.43H118.43V26.8H117.43Z" fill="#171717"/>
</svg>