<svg width="146" height="47" viewBox="0 0 146 47" fill="none" xmlns="http://www.w3.org/2000/svg">
<path d="M24 46H13.824L1.472 1.2H10.752L18.944 36.016L27.904 1.2H37.632L46.464 35.888L54.72 1.2H64L51.584 46H41.472L32.768 13.872L24 46ZM101.34 8.432H78.492V19.824H95.58V26.8H78.492V38.768H101.34V46H69.852V1.2H101.34V8.432ZM135.222 14.128C135.222 12.2507 134.624 10.8427 133.43 9.904C132.235 8.92267 130.55 8.432 128.374 8.432H117.43V19.76H128.31C130.486 19.76 132.171 19.2907 133.366 18.352C134.603 17.3707 135.222 15.9627 135.222 14.128ZM108.79 46V1.2H129.59C132.704 1.2 135.328 1.73333 137.462 2.8C139.595 3.824 141.195 5.232 142.262 7.024C143.371 8.77333 143.926 10.7573 143.926 12.976C143.926 14.9387 143.563 16.6027 142.838 17.968C142.112 19.3333 141.11 20.4213 139.83 21.232C138.592 22 137.163 22.5333 135.542 22.832V23.344C137.504 23.6 139.19 24.1547 140.597 25.008C142.006 25.8187 143.094 26.9707 143.862 28.464C144.63 29.9573 145.014 31.7707 145.014 33.904C145.014 36.2507 144.438 38.3413 143.286 40.176C142.134 41.968 140.448 43.3973 138.229 44.464C136.054 45.488 133.43 46 130.358 46H108.79ZM117.43 38.768H129.206C131.467 38.768 133.216 38.2773 134.454 37.296C135.734 36.272 136.374 34.8 136.374 32.88C136.374 30.8747 135.691 29.36 134.326 28.336C133.003 27.312 131.232 26.8 129.014 26.8H117.43V38.768Z" fill="#171717"/>
<path d="M24 46V46.75H24.5727L24.7235 46.1975L24 46ZM13.824 46L13.101 46.1993L13.2528 46.75H13.824V46ZM1.472 1.2V0.449997H0.48723L0.748978 1.39934L1.472 1.2ZM10.752 1.2L11.4821 1.02822L11.346 0.449997H10.752V1.2ZM18.944 36.016L18.2139 36.1878L19.6703 36.2029L18.944 36.016ZM27.904 1.2V0.449997H27.3226L27.1777 1.01307L27.904 1.2ZM37.632 1.2L38.3588 1.01494L38.215 0.449997H37.632V1.2ZM46.464 35.888L45.7372 36.0731L47.1936 36.0617L46.464 35.888ZM54.72 1.2V0.449997H54.1276L53.9904 1.02634L54.72 1.2ZM64 1.2L64.7228 1.4003L64.9861 0.449997H64V1.2ZM51.584 46V46.75H52.1544L52.3068 46.2003L51.584 46ZM41.472 46L40.7481 46.1961L40.8982 46.75H41.472V46ZM32.768 13.872L33.4919 13.6759L32.7707 11.0136L32.0445 13.6745L32.768 13.872ZM24 46V45.25H13.824V46V46.75H24V46ZM13.824 46L14.547 45.8007L2.19502 1.00065L1.472 1.2L0.748978 1.39934L13.101 46.1993L13.824 46ZM1.472 1.2V1.95H10.752V1.2V0.449997H1.472V1.2ZM10.752 1.2L10.0219 1.37178L18.2139 36.1878L18.944 36.016L19.6741 35.8442L11.4821 1.02822L10.752 1.2ZM18.944 36.016L19.6703 36.2029L28.6303 1.38692L27.904 1.2L27.1777 1.01307L18.2177 35.8291L18.944 36.016ZM27.904 1.2V1.95H37.632V1.2V0.449997H27.904V1.2ZM37.632 1.2L36.9052 1.38505L45.7372 36.0731L46.464 35.888L47.1908 35.7029L38.3588 1.01494L37.632 1.2ZM46.464 35.888L47.1936 36.0617L55.4496 1.37365L54.72 1.2L53.9904 1.02634L45.7344 35.7143L46.464 35.888ZM54.72 1.2V1.95H64V1.2V0.449997H54.72V1.2ZM64 1.2L63.2772 0.99969L50.8612 45.7997L51.584 46L52.3068 46.2003L64.7228 1.4003L64 1.2ZM51.584 46V45.25H41.472V46V46.75H51.584V46ZM41.472 46L42.1959 45.8039L33.4919 13.6759L32.768 13.872L32.0441 14.0681L40.7481 46.1961L41.472 46ZM32.768 13.872L32.0445 13.6745L23.2765 45.8025L24 46L24.7235 46.1975L33.4915 14.0695L32.768 13.872ZM101.34 8.432V9.182H102.09V8.432H101.34ZM78.492 8.432V7.682H77.742V8.432H78.492ZM78.492 19.824H77.742V20.574H78.492V19.824ZM95.58 19.824H96.33V19.074H95.58V19.824ZM95.58 26.8V27.55H96.33V26.8H95.58ZM78.492 26.8V26.05H77.742V26.8H78.492ZM78.492 38.768H77.742V39.518H78.492V38.768ZM101.34 38.768H102.09V38.018H101.34V38.768ZM101.34 46V46.75H102.09V46H101.34ZM69.852 46H69.102V46.75H69.852V46ZM69.852 1.2V0.449997H69.102V1.2H69.852ZM101.34 1.2H102.09V0.449997H101.34V1.2ZM101.34 8.432V7.682H78.492V8.432V9.182H101.34V8.432ZM78.492 8.432H77.742V19.824H78.492H79.242V8.432H78.492ZM78.492 19.824V20.574H95.58V19.824V19.074H78.492V19.824ZM95.58 19.824H94.83V26.8H95.58H96.33V19.824H95.58ZM95.58 26.8V26.05H78.492V26.8V27.55H95.58V26.8ZM78.492 26.8H77.742V38.768H78.492H79.242V26.8H78.492ZM78.492 38.768V39.518H101.34V38.768V38.018H78.492V38.768ZM101.34 38.768H100.59V46H101.34H102.09V38.768H101.34ZM101.34 46V45.25H69.852V46V46.75H101.34V46ZM69.852 46H70.602V1.2H69.852H69.102V46H69.852ZM69.852 1.2V1.95H101.34V1.2V0.449997H69.852V1.2ZM101.34 1.2H100.59V8.432H101.34H102.09V1.2H101.34ZM133.43 9.904L132.953 10.4835L132.96 10.4887L132.966 10.4937L133.43 9.904ZM117.43 8.432V7.682H116.68V8.432H117.43ZM117.43 19.76H116.68V20.51H117.43V19.76ZM133.366 18.352L133.829 18.9417L133.832 18.9396L133.366 18.352ZM108.79 46H108.04V46.75H108.79V46ZM108.79 1.2V0.449997H108.04V1.2H108.79ZM137.462 2.8L137.126 3.47091L137.137 3.47614L137.462 2.8ZM142.262 7.024L141.617 7.40761L141.622 7.41671L141.628 7.42565L142.262 7.024ZM139.83 21.232L140.225 21.8693L140.231 21.8656L139.83 21.232ZM135.542 22.832L135.406 22.0944L134.792 22.2075V22.832H135.542ZM135.542 23.344H134.792V24.0025L135.444 24.0877L135.542 23.344ZM140.597 25.008L140.209 25.6494L140.216 25.6538L140.223 25.658L140.597 25.008ZM143.862 28.464L144.528 28.121L144.528 28.121L143.862 28.464ZM143.286 40.176L143.916 40.5816L143.921 40.5748L143.286 40.176ZM138.229 44.464L138.549 45.1426L138.554 45.1399L138.229 44.464ZM117.43 38.768H116.68V39.518H117.43V38.768ZM134.454 37.296L134.92 37.8836L134.922 37.8817L134.454 37.296ZM134.326 28.336L133.866 28.9291L133.876 28.936L134.326 28.336ZM117.43 26.8V26.05H116.68V26.8H117.43ZM135.222 14.128H135.972C135.972 12.0804 135.311 10.4284 133.893 9.31426L133.43 9.904L132.966 10.4937C133.937 11.2569 134.472 12.4209 134.472 14.128H135.222ZM133.43 9.904L133.906 9.32445C132.531 8.19558 130.653 7.682 128.374 7.682V8.432V9.182C130.446 9.182 131.938 9.64976 132.953 10.4835L133.43 9.904ZM128.374 8.432V7.682H117.43V8.432V9.182H128.374V8.432ZM117.43 8.432H116.68V19.76H117.43H118.18V8.432H117.43ZM117.43 19.76V20.51H128.31V19.76V19.01H117.43V19.76ZM128.31 19.76V20.51C130.583 20.51 132.456 20.0208 133.829 18.9417L133.366 18.352L132.902 17.7623C131.886 18.5606 130.388 19.01 128.31 19.01V19.76ZM133.366 18.352L133.832 18.9396C135.279 17.792 135.972 16.15 135.972 14.128H135.222H134.472C134.472 15.7753 133.927 16.9493 132.899 17.7644L133.366 18.352ZM108.79 46H109.54V1.2H108.79H108.04V46H108.79ZM108.79 1.2V1.95H129.59V1.2V0.449997H108.79V1.2ZM129.59 1.2V1.95C132.622 1.95 135.124 2.46965 137.126 3.47082L137.462 2.8L137.797 2.12918C135.533 0.997012 132.786 0.449997 129.59 0.449997V1.2ZM137.462 2.8L137.137 3.47614C139.156 4.44513 140.636 5.75904 141.617 7.40761L142.262 7.024L142.906 6.64039C141.754 4.70495 140.034 3.20287 137.786 2.12386L137.462 2.8ZM142.262 7.024L141.628 7.42565C142.656 9.04626 143.176 10.889 143.176 12.976H143.926H144.676C144.676 10.6257 144.086 8.50041 142.895 6.62234L142.262 7.024ZM143.926 12.976H143.176C143.176 14.8483 142.829 16.3845 142.175 17.6161L142.838 17.968L143.5 18.3199C144.296 16.8209 144.676 15.0291 144.676 12.976H143.926ZM142.838 17.968L142.175 17.6161C141.51 18.8689 140.596 19.8589 139.428 20.5984L139.83 21.232L140.231 21.8656C141.623 20.9838 142.715 19.7977 143.5 18.3199L142.838 17.968ZM139.83 21.232L139.434 20.5948C138.286 21.3073 136.947 21.8105 135.406 22.0944L135.542 22.832L135.677 23.5696C137.379 23.2562 138.898 22.6927 140.225 21.8692L139.83 21.232ZM135.542 22.832H134.792V23.344H135.542H136.292V22.832H135.542ZM135.542 23.344L135.444 24.0877C137.324 24.3329 138.906 24.8598 140.209 25.6494L140.597 25.008L140.986 24.3666C139.473 23.4495 137.684 22.8671 135.639 22.6003L135.542 23.344ZM140.597 25.008L140.223 25.658C141.502 26.3941 142.49 27.4375 143.195 28.807L143.862 28.464L144.528 28.121C143.697 26.5038 142.509 25.2432 140.972 24.358L140.597 25.008ZM143.862 28.464L143.195 28.807C143.895 30.1694 144.264 31.8586 144.264 33.904H145.014H145.764C145.764 31.6828 145.364 29.7452 144.528 28.121L143.862 28.464ZM145.014 33.904H144.264C144.264 36.1218 143.721 38.0719 142.65 39.7772L143.286 40.176L143.921 40.5748C145.154 38.6107 145.764 36.3796 145.764 33.904H145.014ZM143.286 40.176L142.655 39.7704C141.589 41.4286 140.018 42.772 137.905 43.7881L138.229 44.464L138.554 45.1399C140.878 44.0227 142.678 42.5074 143.916 40.5816L143.286 40.176ZM138.229 44.464L137.91 43.7854C135.858 44.7512 133.349 45.25 130.358 45.25V46V46.75C133.51 46.75 136.249 46.2248 138.549 45.1426L138.229 44.464ZM130.358 46V45.25H108.79V46V46.75H130.358V46ZM117.43 38.768V39.518H129.206V38.768V38.018H117.43V38.768ZM129.206 38.768V39.518C131.565 39.518 133.503 39.0071 134.92 37.8836L134.454 37.296L133.987 36.7084C132.929 37.5475 131.369 38.018 129.206 38.018V38.768ZM134.454 37.296L134.922 37.8817C136.411 36.6901 137.124 34.9841 137.124 32.88H136.374H135.624C135.624 34.6159 135.056 35.8539 133.985 36.7103L134.454 37.296ZM136.374 32.88H137.124C137.124 30.6853 136.364 28.9275 134.776 27.736L134.326 28.336L133.876 28.936C135.017 29.7925 135.624 31.064 135.624 32.88H136.374ZM134.326 28.336L134.785 27.743C133.293 26.5884 131.344 26.05 129.014 26.05V26.8V27.55C131.12 27.55 132.712 28.0356 133.866 28.929L134.326 28.336ZM129.014 26.8V26.05H117.43V26.8V27.55H129.014V26.8ZM117.43 26.8H116.68V38.768H117.43H118.18V26.8H117.43Z" fill="#171717"/>
</svg>
