<svg width="374" height="48" viewBox="0 0 374 48" fill="none" xmlns="http://www.w3.org/2000/svg">
<path d="M18.056 1.2C22.8347 1.2 26.9733 2.13866 30.472 4.016C34.0133 5.85066 36.7653 8.45333 38.728 11.824C40.6907 15.1947 41.672 19.1627 41.672 23.728C41.672 28.2507 40.6907 32.176 38.728 35.504C36.7653 38.832 34.0133 41.4133 30.472 43.248C26.9733 45.0827 22.8347 46 18.056 46H1.352V1.2H18.056ZM17.8 38.768C22.6213 38.768 26.3333 37.4453 28.936 34.8C31.5387 32.112 32.84 28.4213 32.84 23.728C32.84 18.992 31.5387 15.2587 28.936 12.528C26.3333 9.79733 22.6213 8.432 17.8 8.432H9.992V38.768H17.8ZM79.715 8.432H56.867V19.824H73.955V26.8H56.867V38.768H79.715V46H48.227V1.2H79.715V8.432ZM118.333 1.2H127.549L111.101 46H100.669L84.2845 1.2H93.5005L105.917 37.168L118.333 1.2ZM164.84 8.432H141.992V19.824H159.08V26.8H141.992V38.768H164.84V46H133.352V1.2H164.84V8.432ZM180.93 1.2V38.768H200.898V46H172.29V1.2H180.93ZM227.337 46.448C224.179 46.448 221.214 45.8933 218.441 44.784C215.667 43.6747 213.235 42.1173 211.145 40.112C209.097 38.064 207.475 35.6533 206.281 32.88C205.086 30.064 204.489 26.9707 204.489 23.6C204.489 20.2293 205.086 17.1573 206.281 14.384C207.475 11.6107 209.097 9.2 211.145 7.152C213.235 5.104 215.667 3.52533 218.441 2.416C221.214 1.30666 224.179 0.751999 227.337 0.751999C230.537 0.751999 233.502 1.30666 236.233 2.416C239.006 3.52533 241.438 5.104 243.529 7.152C245.619 9.2 247.241 11.6107 248.393 14.384C249.587 17.1573 250.185 20.2293 250.185 23.6C250.185 26.9707 249.587 30.064 248.393 32.88C247.241 35.6533 245.619 38.064 243.529 40.112C241.438 42.1173 239.006 43.6747 236.233 44.784C233.502 45.8933 230.537 46.448 227.337 46.448ZM227.401 39.088C230.089 39.088 232.478 38.448 234.569 37.168C236.702 35.8453 238.366 34.032 239.561 31.728C240.798 29.424 241.417 26.7147 241.417 23.6C241.417 20.4853 240.798 17.776 239.561 15.472C238.366 13.168 236.702 11.376 234.569 10.096C232.478 8.77333 230.089 8.112 227.401 8.112C224.627 8.112 222.174 8.77333 220.041 10.096C217.95 11.376 216.307 13.168 215.113 15.472C213.918 17.776 213.321 20.4853 213.321 23.6C213.321 26.672 213.918 29.3813 215.113 31.728C216.307 34.0747 217.95 35.888 220.041 37.168C222.174 38.448 224.627 39.088 227.401 39.088ZM274.841 21.68C276.547 21.68 277.955 21.424 279.065 20.912C280.174 20.3573 280.985 19.5893 281.497 18.608C282.051 17.584 282.329 16.3893 282.329 15.024C282.329 12.9333 281.71 11.312 280.473 10.16C279.278 9.008 277.401 8.432 274.841 8.432H265.305V21.68H274.841ZM291.161 15.024C291.161 16.688 290.862 18.352 290.265 20.016C289.667 21.6373 288.729 23.1307 287.449 24.496C286.169 25.8187 284.505 26.8853 282.457 27.696C280.451 28.5067 277.998 28.912 275.097 28.912H265.305V46H256.665V1.2H275.097C278.723 1.2 281.71 1.84 284.057 3.12C286.446 4.35733 288.217 6.04266 289.369 8.176C290.563 10.2667 291.161 12.5493 291.161 15.024ZM329.153 8.432H306.305V19.824H323.393V26.8H306.305V38.768H329.153V46H297.665V1.2H329.153V8.432ZM362.266 15.024C362.266 13.0187 361.647 11.4187 360.41 10.224C359.215 9.02933 357.338 8.432 354.778 8.432H345.242V21.68H354.778C356.485 21.68 357.893 21.424 359.002 20.912C360.111 20.3573 360.922 19.5893 361.434 18.608C361.989 17.584 362.266 16.3893 362.266 15.024ZM355.034 1.2C358.661 1.2 361.647 1.84 363.994 3.12C366.383 4.35733 368.154 6.04266 369.306 8.176C370.501 10.2667 371.098 12.5493 371.098 15.024C371.098 16.688 370.799 18.352 370.202 20.016C369.605 21.6373 368.666 23.1307 367.386 24.496C366.106 25.8187 364.442 26.8853 362.394 27.696C360.389 28.5067 357.935 28.912 355.034 28.912H345.242V46H336.602V1.2H355.034ZM359.898 26.032L371.994 46H362.33L350.746 26.032H359.898Z" fill="#171717"/>
<path d="M30.472 4.016L30.1173 4.67694L30.127 4.68194L30.472 4.016ZM38.728 11.824L39.3761 11.4466L39.3761 11.4466L38.728 11.824ZM38.728 35.504L39.374 35.885L39.374 35.885L38.728 35.504ZM30.472 43.248L30.127 42.5821L30.1237 42.5838L30.472 43.248ZM1.352 46H0.602V46.75H1.352V46ZM1.352 1.2V0.449997H0.602V1.2H1.352ZM28.936 34.8L29.4706 35.326L29.4748 35.3217L28.936 34.8ZM28.936 12.528L28.3931 13.0455L28.3931 13.0455L28.936 12.528ZM9.992 8.432V7.682H9.242V8.432H9.992ZM9.992 38.768H9.242V39.518H9.992V38.768ZM18.056 1.2V1.95C22.736 1.95 26.7479 2.86884 30.1174 4.67687L30.472 4.016L30.8266 3.35513C27.1988 1.40849 22.9334 0.449997 18.056 0.449997V1.2ZM30.472 4.016L30.127 4.68194C33.545 6.45269 36.1905 8.95662 38.0799 12.2014L38.728 11.824L39.3761 11.4466C37.3402 7.95004 34.4817 5.24864 30.817 3.35006L30.472 4.016ZM38.728 11.824L38.0799 12.2014C39.9652 15.4392 40.922 19.2724 40.922 23.728H41.672H42.422C42.422 19.0529 41.4161 14.9501 39.3761 11.4466L38.728 11.824ZM41.672 23.728H40.922C40.922 28.1398 39.9657 31.9288 38.082 35.123L38.728 35.504L39.374 35.885C41.4156 32.4232 42.422 28.3616 42.422 23.728H41.672ZM38.728 35.504L38.082 35.123C36.1933 38.3256 33.5475 40.81 30.127 42.5821L30.472 43.248L30.817 43.9139C34.4792 42.0167 37.3374 39.3384 39.374 35.885L38.728 35.504ZM30.472 43.248L30.1237 42.5838C26.7528 44.3515 22.7385 45.25 18.056 45.25V46V46.75C22.9308 46.75 27.1939 45.8139 30.8203 43.9122L30.472 43.248ZM18.056 46V45.25H1.352V46V46.75H18.056V46ZM1.352 46H2.102V1.2H1.352H0.602V46H1.352ZM1.352 1.2V1.95H18.056V1.2V0.449997H1.352V1.2ZM17.8 38.768V39.518C22.7595 39.518 26.6883 38.154 29.4706 35.326L28.936 34.8L28.4014 34.274C25.9784 36.7367 22.4832 38.018 17.8 38.018V38.768ZM28.936 34.8L29.4748 35.3217C32.2452 32.4604 33.59 28.5641 33.59 23.728H32.84H32.09C32.09 28.2786 30.8321 31.7636 28.3972 34.2783L28.936 34.8ZM32.84 23.728H33.59C33.59 18.8509 32.2463 14.914 29.4789 12.0105L28.936 12.528L28.3931 13.0455C30.8311 15.6033 32.09 19.1331 32.09 23.728H32.84ZM28.936 12.528L29.4789 12.0105C26.6979 9.09276 22.7662 7.682 17.8 7.682V8.432V9.182C22.4764 9.182 25.9688 10.5019 28.3931 13.0455L28.936 12.528ZM17.8 8.432V7.682H9.992V8.432V9.182H17.8V8.432ZM9.992 8.432H9.242V38.768H9.992H10.742V8.432H9.992ZM9.992 38.768V39.518H17.8V38.768V38.018H9.992V38.768ZM79.715 8.432V9.182H80.465V8.432H79.715ZM56.867 8.432V7.682H56.117V8.432H56.867ZM56.867 19.824H56.117V20.574H56.867V19.824ZM73.955 19.824H74.705V19.074H73.955V19.824ZM73.955 26.8V27.55H74.705V26.8H73.955ZM56.867 26.8V26.05H56.117V26.8H56.867ZM56.867 38.768H56.117V39.518H56.867V38.768ZM79.715 38.768H80.465V38.018H79.715V38.768ZM79.715 46V46.75H80.465V46H79.715ZM48.227 46H47.477V46.75H48.227V46ZM48.227 1.2V0.449997H47.477V1.2H48.227ZM79.715 1.2H80.465V0.449997H79.715V1.2ZM79.715 8.432V7.682H56.867V8.432V9.182H79.715V8.432ZM56.867 8.432H56.117V19.824H56.867H57.617V8.432H56.867ZM56.867 19.824V20.574H73.955V19.824V19.074H56.867V19.824ZM73.955 19.824H73.205V26.8H73.955H74.705V19.824H73.955ZM73.955 26.8V26.05H56.867V26.8V27.55H73.955V26.8ZM56.867 26.8H56.117V38.768H56.867H57.617V26.8H56.867ZM56.867 38.768V39.518H79.715V38.768V38.018H56.867V38.768ZM79.715 38.768H78.965V46H79.715H80.465V38.768H79.715ZM79.715 46V45.25H48.227V46V46.75H79.715V46ZM48.227 46H48.977V1.2H48.227H47.477V46H48.227ZM48.227 1.2V1.95H79.715V1.2V0.449997H48.227V1.2ZM79.715 1.2H78.965V8.432H79.715H80.465V1.2H79.715ZM118.333 1.2V0.449997H117.798L117.624 0.955271L118.333 1.2ZM127.549 1.2L128.253 1.45848L128.623 0.449997H127.549V1.2ZM111.101 46V46.75H111.624L111.805 46.2585L111.101 46ZM100.669 46L99.9641 46.2576L100.144 46.75H100.669V46ZM84.2845 1.2V0.449997H83.2116L83.5801 1.4576L84.2845 1.2ZM93.5005 1.2L94.2094 0.955271L94.035 0.449997H93.5005V1.2ZM105.917 37.168L105.208 37.4127L105.917 39.4665L106.625 37.4127L105.917 37.168ZM118.333 1.2V1.95H127.549V1.2V0.449997H118.333V1.2ZM127.549 1.2L126.844 0.94151L110.396 45.7415L111.101 46L111.805 46.2585L128.253 1.45848L127.549 1.2ZM111.101 46V45.25H100.669V46V46.75H111.101V46ZM100.669 46L101.373 45.7424L84.9889 0.942397L84.2845 1.2L83.5801 1.4576L99.9641 46.2576L100.669 46ZM84.2845 1.2V1.95H93.5005V1.2V0.449997H84.2845V1.2ZM93.5005 1.2L92.7916 1.44472L105.208 37.4127L105.917 37.168L106.625 36.9233L94.2094 0.955271L93.5005 1.2ZM105.917 37.168L106.625 37.4127L119.041 1.44472L118.333 1.2L117.624 0.955271L105.208 36.9233L105.917 37.168ZM164.84 8.432V9.182H165.59V8.432H164.84ZM141.992 8.432V7.682H141.242V8.432H141.992ZM141.992 19.824H141.242V20.574H141.992V19.824ZM159.08 19.824H159.83V19.074H159.08V19.824ZM159.08 26.8V27.55H159.83V26.8H159.08ZM141.992 26.8V26.05H141.242V26.8H141.992ZM141.992 38.768H141.242V39.518H141.992V38.768ZM164.84 38.768H165.59V38.018H164.84V38.768ZM164.84 46V46.75H165.59V46H164.84ZM133.352 46H132.602V46.75H133.352V46ZM133.352 1.2V0.449997H132.602V1.2H133.352ZM164.84 1.2H165.59V0.449997H164.84V1.2ZM164.84 8.432V7.682H141.992V8.432V9.182H164.84V8.432ZM141.992 8.432H141.242V19.824H141.992H142.742V8.432H141.992ZM141.992 19.824V20.574H159.08V19.824V19.074H141.992V19.824ZM159.08 19.824H158.33V26.8H159.08H159.83V19.824H159.08ZM159.08 26.8V26.05H141.992V26.8V27.55H159.08V26.8ZM141.992 26.8H141.242V38.768H141.992H142.742V26.8H141.992ZM141.992 38.768V39.518H164.84V38.768V38.018H141.992V38.768ZM164.84 38.768H164.09V46H164.84H165.59V38.768H164.84ZM164.84 46V45.25H133.352V46V46.75H164.84V46ZM133.352 46H134.102V1.2H133.352H132.602V46H133.352ZM133.352 1.2V1.95H164.84V1.2V0.449997H133.352V1.2ZM164.84 1.2H164.09V8.432H164.84H165.59V1.2H164.84ZM180.93 1.2H181.68V0.449997H180.93V1.2ZM180.93 38.768H180.18V39.518H180.93V38.768ZM200.898 38.768H201.648V38.018H200.898V38.768ZM200.898 46V46.75H201.648V46H200.898ZM172.29 46H171.54V46.75H172.29V46ZM172.29 1.2V0.449997H171.54V1.2H172.29ZM180.93 1.2H180.18V38.768H180.93H181.68V1.2H180.93ZM180.93 38.768V39.518H200.898V38.768V38.018H180.93V38.768ZM200.898 38.768H200.148V46H200.898H201.648V38.768H200.898ZM200.898 46V45.25H172.29V46V46.75H200.898V46ZM172.29 46H173.04V1.2H172.29H171.54V46H172.29ZM172.29 1.2V1.95H180.93V1.2V0.449997H172.29V1.2ZM218.441 44.784L218.719 44.0876L218.441 44.784ZM211.145 40.112L210.614 40.6423L210.62 40.6479L210.625 40.6533L211.145 40.112ZM206.281 32.88L205.59 33.1729L205.592 33.1767L206.281 32.88ZM206.281 14.384L205.592 14.0873L206.281 14.384ZM211.145 7.152L210.62 6.6162L210.614 6.62167L211.145 7.152ZM218.441 2.416L218.162 1.71964L218.162 1.71964L218.441 2.416ZM236.233 2.416L235.95 3.11086L235.954 3.11235L236.233 2.416ZM243.529 7.152L244.053 6.61623L244.053 6.61623L243.529 7.152ZM248.393 14.384L247.7 14.6717L247.704 14.6807L248.393 14.384ZM248.393 32.88L247.702 32.5871L247.7 32.5923L248.393 32.88ZM243.529 40.112L244.048 40.6533L244.053 40.6478L243.529 40.112ZM236.233 44.784L235.954 44.0876L235.95 44.0891L236.233 44.784ZM234.569 37.168L234.96 37.8076L234.964 37.8054L234.569 37.168ZM239.561 31.728L238.9 31.3731L238.895 31.3828L239.561 31.728ZM239.561 15.472L238.895 15.8173L238.9 15.8268L239.561 15.472ZM234.569 10.096L234.168 10.7298L234.175 10.7346L234.183 10.7391L234.569 10.096ZM220.041 10.096L220.432 10.7356L220.436 10.7334L220.041 10.096ZM215.113 15.472L214.447 15.1268L214.447 15.1268L215.113 15.472ZM215.113 31.728L214.444 32.0683L214.444 32.0683L215.113 31.728ZM220.041 37.168L219.649 37.8077L219.655 37.8111L220.041 37.168ZM227.337 46.448V45.698C224.269 45.698 221.399 45.1595 218.719 44.0876L218.441 44.784L218.162 45.4804C221.029 46.6271 224.089 47.198 227.337 47.198V46.448ZM218.441 44.784L218.719 44.0876C216.032 43.0129 213.683 41.5073 211.664 39.5707L211.145 40.112L210.625 40.6533C212.788 42.7273 215.302 44.3364 218.162 45.4804L218.441 44.784ZM211.145 40.112L211.675 39.5817C209.697 37.6037 208.128 35.2732 206.969 32.5833L206.281 32.88L205.592 33.1767C206.822 36.0335 208.496 38.5243 210.614 40.6423L211.145 40.112ZM206.281 32.88L206.971 32.5871C205.819 29.8728 205.239 26.8803 205.239 23.6H204.489H203.739C203.739 27.061 204.352 30.2552 205.59 33.1729L206.281 32.88ZM204.489 23.6H205.239C205.239 20.3195 205.819 17.35 206.969 14.6807L206.281 14.384L205.592 14.0873C204.352 16.9647 203.739 20.1392 203.739 23.6H204.489ZM206.281 14.384L206.969 14.6807C208.128 11.9908 209.697 9.66034 211.675 7.68233L211.145 7.152L210.614 6.62167C208.496 8.73965 206.822 11.2305 205.592 14.0873L206.281 14.384ZM211.145 7.152L211.669 7.68777C213.688 5.71047 216.036 4.18571 218.719 3.11235L218.441 2.416L218.162 1.71964C215.299 2.86495 212.783 4.49753 210.62 6.61623L211.145 7.152ZM218.441 2.416L218.719 3.11235C221.399 2.04045 224.269 1.502 227.337 1.502V0.751999V0.0019989C224.089 0.0019989 221.029 0.57288 218.162 1.71964L218.441 2.416ZM227.337 0.751999V1.502C230.448 1.502 233.317 2.04095 235.95 3.11085L236.233 2.416L236.515 1.72115C233.687 0.572377 230.625 0.0019989 227.337 0.0019989V0.751999ZM236.233 2.416L235.954 3.11235C238.637 4.18571 240.985 5.71047 243.004 7.68777L243.529 7.152L244.053 6.61623C241.89 4.49753 239.374 2.86495 236.511 1.71964L236.233 2.416ZM243.529 7.152L243.004 7.68777C245.02 9.66334 246.586 11.989 247.7 14.6717L248.393 14.384L249.085 14.0963C247.895 11.2323 246.218 8.73666 244.053 6.61623L243.529 7.152ZM248.393 14.384L247.704 14.6807C248.854 17.35 249.435 20.3195 249.435 23.6H250.185H250.935C250.935 20.1392 250.321 16.9647 249.081 14.0873L248.393 14.384ZM250.185 23.6H249.435C249.435 26.8803 248.854 29.8728 247.702 32.5871L248.393 32.88L249.083 33.1729C250.321 30.2552 250.935 27.061 250.935 23.6H250.185ZM248.393 32.88L247.7 32.5923C246.586 35.275 245.02 37.6007 243.004 39.5762L243.529 40.112L244.053 40.6478C246.218 38.5273 247.895 36.0317 249.085 33.1677L248.393 32.88ZM243.529 40.112L243.009 39.5707C240.99 41.5073 238.641 43.0129 235.954 44.0876L236.233 44.784L236.511 45.4804C239.371 44.3364 241.885 42.7273 244.048 40.6533L243.529 40.112ZM236.233 44.784L235.95 44.0891C233.317 45.159 230.448 45.698 227.337 45.698V46.448V47.198C230.625 47.198 233.687 46.6276 236.515 45.4788L236.233 44.784ZM227.401 39.088V39.838C230.213 39.838 232.74 39.1667 234.96 37.8076L234.569 37.168L234.177 36.5284C232.215 37.7293 229.964 38.338 227.401 38.338V39.088ZM234.569 37.168L234.964 37.8054C237.216 36.409 238.972 34.493 240.226 32.0732L239.561 31.728L238.895 31.3828C237.76 33.571 236.188 35.2816 234.173 36.5306L234.569 37.168ZM239.561 31.728L240.221 32.0828C241.527 29.6507 242.167 26.8149 242.167 23.6H241.417H240.667C240.667 26.6144 240.068 29.1973 238.9 31.3732L239.561 31.728ZM241.417 23.6H242.167C242.167 20.3851 241.527 17.5493 240.221 15.1172L239.561 15.472L238.9 15.8268C240.068 18.0027 240.667 20.5856 240.667 23.6H241.417ZM239.561 15.472L240.226 15.1268C238.971 12.705 237.212 10.8075 234.954 9.45288L234.569 10.096L234.183 10.7391C236.192 11.9445 237.761 13.631 238.895 15.8172L239.561 15.472ZM234.569 10.096L234.969 9.46219C232.748 8.05707 230.218 7.362 227.401 7.362V8.112V8.862C229.959 8.862 232.207 9.48959 234.168 10.7298L234.569 10.096ZM227.401 8.112V7.362C224.503 7.362 221.91 8.05474 219.645 9.45857L220.041 10.096L220.436 10.7334C222.438 9.49193 224.752 8.862 227.401 8.862V8.112ZM220.041 10.096L219.649 9.45636C217.435 10.8119 215.7 12.7089 214.447 15.1268L215.113 15.472L215.778 15.8172C216.914 13.6271 218.465 11.9401 220.432 10.7356L220.041 10.096ZM215.113 15.472L214.447 15.1268C213.187 17.5568 212.571 20.389 212.571 23.6H213.321H214.071C214.071 20.5816 214.649 17.9952 215.778 15.8172L215.113 15.472ZM213.321 23.6H212.571C212.571 26.7706 213.188 29.5999 214.444 32.0683L215.113 31.728L215.781 31.3877C214.648 29.1627 214.071 26.5734 214.071 23.6H213.321ZM215.113 31.728L214.444 32.0683C215.697 34.5288 217.431 36.4499 219.649 37.8076L220.041 37.168L220.432 36.5284C218.468 35.3261 216.918 33.6205 215.781 31.3877L215.113 31.728ZM220.041 37.168L219.655 37.8111C221.918 39.1689 224.507 39.838 227.401 39.838V39.088V38.338C224.747 38.338 222.43 37.7271 220.426 36.5249L220.041 37.168ZM279.065 20.912L279.379 21.593L279.389 21.5881L279.4 21.5828L279.065 20.912ZM281.497 18.608L280.837 18.2507L280.832 18.2611L281.497 18.608ZM280.473 10.16L279.952 10.7L279.961 10.7089L280.473 10.16ZM265.305 8.432V7.682H264.555V8.432H265.305ZM265.305 21.68H264.555V22.43H265.305V21.68ZM290.265 20.016L290.968 20.2753L290.97 20.2694L290.265 20.016ZM287.449 24.496L287.988 25.0176L287.996 25.009L287.449 24.496ZM282.457 27.696L282.18 26.9986L282.175 27.0007L282.457 27.696ZM265.305 28.912V28.162H264.555V28.912H265.305ZM265.305 46V46.75H266.055V46H265.305ZM256.665 46H255.915V46.75H256.665V46ZM256.665 1.2V0.449997H255.915V1.2H256.665ZM284.057 3.12L283.697 3.77842L283.704 3.78228L283.712 3.78599L284.057 3.12ZM289.369 8.176L288.709 8.53236L288.713 8.54028L288.717 8.5481L289.369 8.176ZM274.841 21.68V22.43C276.615 22.43 278.14 22.1647 279.379 21.593L279.065 20.912L278.75 20.231C277.77 20.6832 276.479 20.93 274.841 20.93V21.68ZM279.065 20.912L279.4 21.5828C280.633 20.9665 281.568 20.0929 282.161 18.9549L281.497 18.608L280.832 18.2611C280.401 19.0858 279.715 19.7482 278.729 20.2412L279.065 20.912ZM281.497 18.608L282.156 18.9652C282.78 17.814 283.079 16.4925 283.079 15.024H282.329H281.579C281.579 16.2862 281.323 17.354 280.837 18.2508L281.497 18.608ZM282.329 15.024H283.079C283.079 12.778 282.408 10.9373 280.984 9.61108L280.473 10.16L279.961 10.7089C281.012 11.6867 281.579 13.0887 281.579 15.024H282.329ZM280.473 10.16L280.993 9.62012C279.599 8.27593 277.492 7.682 274.841 7.682V8.432V9.182C277.309 9.182 278.957 9.74007 279.952 10.6999L280.473 10.16ZM274.841 8.432V7.682H265.305V8.432V9.182H274.841V8.432ZM265.305 8.432H264.555V21.68H265.305H266.055V8.432H265.305ZM265.305 21.68V22.43H274.841V21.68V20.93H265.305V21.68ZM291.161 15.024H290.411C290.411 16.5964 290.129 18.1748 289.559 19.7626L290.265 20.016L290.97 20.2694C291.595 18.5292 291.911 16.7796 291.911 15.024H291.161ZM290.265 20.016L289.561 19.7567C289.001 21.2763 288.118 22.6848 286.901 23.983L287.449 24.496L287.996 25.009C289.339 23.5765 290.333 21.9984 290.968 20.2753L290.265 20.016ZM287.449 24.496L286.91 23.9744C285.717 25.2069 284.149 26.2196 282.18 26.9986L282.457 27.696L282.733 28.3934C284.86 27.551 286.62 26.4304 287.987 25.0176L287.449 24.496ZM282.457 27.696L282.175 27.0007C280.284 27.7652 277.932 28.162 275.097 28.162V28.912V29.662C278.063 29.662 280.618 29.2481 282.738 28.3913L282.457 27.696ZM275.097 28.912V28.162H265.305V28.912V29.662H275.097V28.912ZM265.305 28.912H264.555V46H265.305H266.055V28.912H265.305ZM265.305 46V45.25H256.665V46V46.75H265.305V46ZM256.665 46H257.415V1.2H256.665H255.915V46H256.665ZM256.665 1.2V1.95H275.097V1.2V0.449997H256.665V1.2ZM275.097 1.2V1.95C278.64 1.95 281.493 2.57613 283.697 3.77842L284.057 3.12L284.416 2.46158C281.927 1.10387 278.806 0.449997 275.097 0.449997V1.2ZM284.057 3.12L283.712 3.78599C285.983 4.962 287.636 6.5459 288.709 8.53236L289.369 8.176L290.028 7.81964C288.797 5.53943 286.909 3.75266 284.401 2.454L284.057 3.12ZM289.369 8.176L288.717 8.5481C289.845 10.5222 290.411 12.6761 290.411 15.024H291.161H291.911C291.911 12.4226 291.281 10.0111 290.02 7.80389L289.369 8.176ZM329.153 8.432V9.182H329.903V8.432H329.153ZM306.305 8.432V7.682H305.555V8.432H306.305ZM306.305 19.824H305.555V20.574H306.305V19.824ZM323.393 19.824H324.143V19.074H323.393V19.824ZM323.393 26.8V27.55H324.143V26.8H323.393ZM306.305 26.8V26.05H305.555V26.8H306.305ZM306.305 38.768H305.555V39.518H306.305V38.768ZM329.153 38.768H329.903V38.018H329.153V38.768ZM329.153 46V46.75H329.903V46H329.153ZM297.665 46H296.915V46.75H297.665V46ZM297.665 1.2V0.449997H296.915V1.2H297.665ZM329.153 1.2H329.903V0.449997H329.153V1.2ZM329.153 8.432V7.682H306.305V8.432V9.182H329.153V8.432ZM306.305 8.432H305.555V19.824H306.305H307.055V8.432H306.305ZM306.305 19.824V20.574H323.393V19.824V19.074H306.305V19.824ZM323.393 19.824H322.643V26.8H323.393H324.143V19.824H323.393ZM323.393 26.8V26.05H306.305V26.8V27.55H323.393V26.8ZM306.305 26.8H305.555V38.768H306.305H307.055V26.8H306.305ZM306.305 38.768V39.518H329.153V38.768V38.018H306.305V38.768ZM329.153 38.768H328.403V46H329.153H329.903V38.768H329.153ZM329.153 46V45.25H297.665V46V46.75H329.153V46ZM297.665 46H298.415V1.2H297.665H296.915V46H297.665ZM297.665 1.2V1.95H329.153V1.2V0.449997H297.665V1.2ZM329.153 1.2H328.403V8.432H329.153H329.903V1.2H329.153ZM360.41 10.224L359.88 10.7544L359.889 10.7636L360.41 10.224ZM345.242 8.432V7.682H344.492V8.432H345.242ZM345.242 21.68H344.492V22.43H345.242V21.68ZM359.002 20.912L359.316 21.593L359.327 21.5881L359.337 21.5828L359.002 20.912ZM361.434 18.608L360.774 18.2507L360.769 18.2611L361.434 18.608ZM363.994 3.12L363.635 3.77842L363.642 3.78228L363.649 3.78599L363.994 3.12ZM369.306 8.176L368.646 8.53236L368.65 8.54028L368.655 8.5481L369.306 8.176ZM370.202 20.016L370.906 20.2753L370.908 20.2694L370.202 20.016ZM367.386 24.496L367.925 25.0176L367.933 25.009L367.386 24.496ZM362.394 27.696L362.118 26.9986L362.113 27.0007L362.394 27.696ZM345.242 28.912V28.162H344.492V28.912H345.242ZM345.242 46V46.75H345.992V46H345.242ZM336.602 46H335.852V46.75H336.602V46ZM336.602 1.2V0.449997H335.852V1.2H336.602ZM359.898 26.032L360.539 25.6434L360.321 25.282H359.898V26.032ZM371.994 46V46.75H373.325L372.635 45.6114L371.994 46ZM362.33 46L361.681 46.3764L361.898 46.75H362.33V46ZM350.746 26.032V25.282H349.444L350.097 26.4084L350.746 26.032ZM362.266 15.024H363.016C363.016 12.8519 362.339 11.044 360.931 9.68445L360.41 10.224L359.889 10.7636C360.956 11.7933 361.516 13.1855 361.516 15.024H362.266ZM360.41 10.224L360.94 9.69367C359.547 8.30026 357.436 7.682 354.778 7.682V8.432V9.182C357.24 9.182 358.884 9.75841 359.88 10.7543L360.41 10.224ZM354.778 8.432V7.682H345.242V8.432V9.182H354.778V8.432ZM345.242 8.432H344.492V21.68H345.242H345.992V8.432H345.242ZM345.242 21.68V22.43H354.778V21.68V20.93H345.242V21.68ZM354.778 21.68V22.43C356.553 22.43 358.077 22.1647 359.316 21.593L359.002 20.912L358.688 20.231C357.708 20.6832 356.416 20.93 354.778 20.93V21.68ZM359.002 20.912L359.337 21.5828C360.57 20.9665 361.505 20.0929 362.099 18.9549L361.434 18.608L360.769 18.2611C360.339 19.0858 359.653 19.7482 358.667 20.2412L359.002 20.912ZM361.434 18.608L362.093 18.9652C362.7157 17.814 363.016 16.4925 363.016 15.024H362.266H361.516C361.516 16.2862 361.26 17.354 360.775 18.2508L361.434 18.608ZM355.034 1.2V1.95C358.578 1.95 361.431 2.57613 363.635 3.77842L363.994 3.12L364.353 2.46158C361.864 1.10387 358.743 0.449997 355.034 0.449997V1.2ZM363.994 3.12L363.649 3.78599C365.92 4.962 367.573 6.5459 368.646 8.53236L369.306 8.176L369.966 7.81964C368.735 5.53943 366.847 3.75266 364.339 2.454L363.994 3.12ZM369.306 8.176L368.655 8.5481C369.783 10.5222 370.348 12.6761 370.348 15.024H371.098H371.848C371.848 12.4226 371.218 10.0111 369.957 7.80389L369.306 8.176ZM371.098 15.024H370.348C370.348 16.5964 370.066 18.1748 369.496 19.7626L370.202 20.016L370.908 20.2694C371.533 18.5292 371.848 16.7796 371.848 15.024H371.098ZM370.202 20.016L369.498 19.7567C368.938 21.2763 368.056 22.6848 366.839 23.983L367.386 24.496L367.933 25.009C369.276 23.5765 370.271 21.9984 370.906 20.2753L370.202 20.016ZM367.386 24.496L366.847 23.9744C365.654 25.2069 364.086 26.2196 362.118 26.9986L362.394 27.696L362.67 28.3934C364.798 27.551 366.558 26.4304 367.925 25.0176L367.386 24.496ZM362.394 27.696L362.113 27.0007C360.222 27.7652 357.87 28.162 355.034 28.162V28.912V29.662C358.001 29.662 360.556 29.2481 362.675 28.3913L362.394 27.696ZM355.034 28.912V28.162H345.242V28.912V29.662H355.034V28.912ZM345.242 28.912H344.492V46H345.242H345.992V28.912H345.242ZM345.242 46V45.25H336.602V46V46.75H345.242V46ZM336.602 46H337.352V1.2H336.602H335.852V46H336.602ZM336.602 1.2V1.95H355.034V1.2V0.449997H336.602V1.2ZM359.898 26.032L359.257 26.4206L371.353 46.3886L371.994 46L372.635 45.6114L360.539 25.6434L359.898 26.032ZM371.994 46V45.25H362.33V46V46.75H371.994V46ZM362.33 46L362.979 45.6236L351.395 25.6556L350.746 26.032L350.097 26.4084L361.681 46.3764L362.33 46ZM350.746 26.032V26.782H359.898V26.032V25.282H350.746V26.032Z" fill="#171717"/>
</svg>
