<svg width="373" height="47" viewBox="0 0 373 47" fill="none" xmlns="http://www.w3.org/2000/svg">
<path d="M0.52 1.2H34.12V10.544H11.656V18.928H28.424V27.632H11.656V46H0.52V1.2ZM38.8905 1.2H50.0265V28.848C50.0265 30.5547 50.3678 32.0267 51.0505 33.264C51.7332 34.4587 52.6932 35.376 53.9305 36.016C55.1678 36.6133 56.6185 36.912 58.2825 36.912C59.9892 36.912 61.4825 36.6133 62.7625 36.016C64.0425 35.376 65.0238 34.4587 65.7065 33.264C66.4318 32.0267 66.7945 30.5547 66.7945 28.848V1.2H77.9305V27.824C77.9305 30.9387 77.3972 33.6693 76.3305 36.016C75.2638 38.32 73.7918 40.2613 71.9145 41.84C70.0798 43.376 67.9678 44.528 65.5785 45.296C63.1892 46.064 60.6932 46.448 58.0905 46.448C54.5918 46.448 51.3918 45.7653 48.4905 44.4C45.5892 42.992 43.2638 40.9227 41.5145 38.192C39.7652 35.4187 38.8905 31.9627 38.8905 27.824V1.2ZM95.906 1.2V36.656H115.426V46H84.77V1.2H95.906ZM131.219 1.2V36.656H150.739V46H120.083V1.2H131.219ZM164.355 32.368C164.568 33.6053 164.995 34.608 165.635 35.376C166.318 36.1013 167.128 36.6347 168.067 36.976C169.048 37.2747 170.115 37.424 171.267 37.424C173.272 37.424 174.808 37.0187 175.875 36.208C176.984 35.3547 177.539 34.2667 177.539 32.944C177.539 31.8773 177.198 31.024 176.515 30.384C175.875 29.744 174.958 29.2107 173.763 28.784C172.611 28.3147 171.267 27.8453 169.731 27.376C168.024 26.9067 166.296 26.3733 164.547 25.776C162.798 25.136 161.176 24.3467 159.683 23.408C158.19 22.4267 156.995 21.168 156.099 19.632C155.203 18.096 154.776 16.176 154.819 13.872C154.819 11.056 155.544 8.66667 156.995 6.704C158.446 4.74133 160.408 3.26933 162.883 2.288C165.358 1.264 168.195 0.751999 171.395 0.751999C174.296 0.751999 176.878 1.17867 179.139 2.032C181.4 2.88533 183.256 4.144 184.707 5.808C186.2 7.42933 187.246 9.456 187.843 11.888L177.603 13.68C177.432 12.7413 177.048 11.9733 176.451 11.376C175.854 10.7787 175.128 10.352 174.275 10.096C173.464 9.79733 172.654 9.648 171.843 9.648C170.819 9.648 169.88 9.81867 169.027 10.16C168.174 10.5013 167.47 10.992 166.915 11.632C166.403 12.272 166.147 13.0187 166.147 13.872C166.147 14.8107 166.446 15.5787 167.043 16.176C167.683 16.7733 168.536 17.3067 169.603 17.776C170.67 18.2453 171.843 18.6933 173.123 19.12C174.872 19.6747 176.664 20.272 178.499 20.912C180.334 21.552 182.04 22.384 183.619 23.408C185.198 24.3893 186.456 25.6693 187.395 27.248C188.376 28.784 188.867 30.7253 188.867 33.072C188.867 35.5893 188.248 37.8507 187.011 39.856C185.774 41.8613 183.918 43.4613 181.443 44.656C178.968 45.8507 175.832 46.448 172.035 46.448C168.835 46.448 165.955 46 163.395 45.104C160.878 44.1653 158.808 42.8 157.187 41.008C155.566 39.216 154.499 37.0187 153.987 34.416L164.355 32.368ZM192.792 1.2H231.768V10.544H217.816V46H206.68V10.544H192.792V1.2ZM254.623 10.544H252.383L239.967 46H228.447L244.831 1.2H262.495L278.751 46H267.231L254.623 10.544ZM240.415 27.696H266.527V37.04H240.415V27.696ZM280.855 23.6C280.855 20.272 281.388 17.2213 282.455 14.448C283.564 11.632 285.1 9.2 287.062 7.152C289.068 5.104 291.457 3.52533 294.231 2.416C297.004 1.30666 300.055 0.751999 303.383 0.751999C308.417 0.751999 312.727 2.01067 316.311 4.528C319.895 7.00267 322.455 10.416 323.991 14.768L314.326 16.88C313.559 15.3013 312.641 14.0213 311.575 13.04C310.508 12.016 309.292 11.2693 307.927 10.8C306.561 10.3307 305.047 10.096 303.383 10.096C300.993 10.096 298.945 10.6933 297.239 11.888C295.532 13.0827 294.231 14.704 293.335 16.752C292.439 18.7573 291.991 21.04 291.991 23.6C291.991 26.2027 292.439 28.528 293.335 30.576C294.231 32.5813 295.532 34.1813 297.239 35.376C298.945 36.528 300.993 37.104 303.383 37.104C305.047 37.104 306.604 36.8693 308.055 36.4C309.505 35.888 310.807 35.0773 311.958 33.968C313.111 32.816 314.092 31.3227 314.903 29.488L324.311 31.408C322.775 36.1867 320.193 39.8987 316.567 42.544C312.94 45.1467 308.545 46.448 303.383 46.448C300.055 46.448 297.004 45.8933 294.231 44.784C291.457 43.6747 289.068 42.1173 287.062 40.112C285.1 38.064 283.564 35.6533 282.455 32.88C281.388 30.064 280.855 26.9707 280.855 23.6ZM330.145 1.2H341.281V18.608H344.417L358.177 1.2H371.361L354.081 23.152L372.065 46H358.241L344.481 27.952H341.281V46H330.145V1.2Z" fill="#171717"/>
</svg>
