<svg width="417" height="48" viewBox="0 0 417 48" fill="none" xmlns="http://www.w3.org/2000/svg">
<path d="M1.352 1.2H9.992V46H1.352V1.2ZM55.783 1.2V46H46.951L27.367 14.896V46H18.727V1.2H27.495L47.143 32.304V1.2H55.783ZM62.301 1.2H98.653V8.432H84.829V46H76.189V8.432H62.301V1.2ZM136.59 8.432H113.742V19.824H130.83V26.8H113.742V38.768H136.59V46H105.102V1.2H136.59V8.432ZM169.704 15.024C169.704 13.0187 169.085 11.4187 167.848 10.224C166.653 9.02933 164.776 8.432 162.216 8.432H152.68V21.68H162.216C163.922 21.68 165.33 21.424 166.44 20.912C167.549 20.3573 168.36 19.5893 168.872 18.608C169.426 17.584 169.704 16.3893 169.704 15.024ZM162.472 1.2C166.098 1.2 169.085 1.84 171.432 3.12C173.821 4.35733 175.592 6.04266 176.744 8.176C177.938 10.2667 178.536 12.5493 178.536 15.024C178.536 16.688 178.237 18.352 177.64 20.016C177.042 21.6373 176.104 23.1307 174.824 24.496C173.544 25.8187 171.88 26.8853 169.832 27.696C167.826 28.5067 165.373 28.912 162.472 28.912H152.68V46H144.04V1.2H162.472ZM167.336 26.032L179.432 46H169.768L158.184 26.032H167.336ZM206.52 8.432H204.216L191.032 46H182.136L198.2 1.2H212.472L228.536 46H219.64L206.52 8.432ZM191.864 28.464H217.976V35.696H191.864V28.464ZM231.176 23.6C231.176 20.2293 231.752 17.1573 232.904 14.384C234.056 11.568 235.656 9.15733 237.704 7.152C239.752 5.104 242.141 3.52533 244.872 2.416C247.645 1.30666 250.632 0.751999 253.832 0.751999C258.44 0.751999 262.515 1.86133 266.056 4.08C269.64 6.256 272.328 9.392 274.12 13.488L266.888 15.6C265.949 13.808 264.776 12.3573 263.368 11.248C262.003 10.1387 260.509 9.328 258.888 8.816C257.267 8.304 255.624 8.048 253.96 8.048C251.229 8.048 248.797 8.70933 246.664 10.032C244.531 11.312 242.867 13.1253 241.672 15.472C240.52 17.8187 239.944 20.528 239.944 23.6C239.944 26.672 240.52 29.3813 241.672 31.728C242.867 34.032 244.531 35.8453 246.664 37.168C248.797 38.4907 251.229 39.152 253.96 39.152C255.667 39.152 257.352 38.896 259.016 38.384C260.723 37.8293 262.301 36.912 263.752 35.632C265.203 34.352 266.44 32.6453 267.464 30.512L274.568 32.496C272.733 37.1467 270.003 40.6453 266.376 42.992C262.749 45.296 258.568 46.448 253.832 46.448C250.632 46.448 247.645 45.8933 244.872 44.784C242.141 43.6747 239.752 42.096 237.704 40.048C235.656 38 234.056 35.5893 232.904 32.816C231.752 30 231.176 26.928 231.176 23.6ZM278.364 1.2H314.716V8.432H300.892V46H292.252V8.432H278.364V1.2ZM321.165 1.2H329.805V46H321.165V1.2ZM369.708 1.2H378.924L362.476 46H352.044L335.66 1.2H344.876L357.292 37.168L369.708 1.2ZM416.215 8.432H393.367V19.824H410.455V26.8H393.367V38.768H416.215V46H384.727V1.2H416.215V8.432Z" fill="#171717"/>
<path d="M1.352 1.2V0.449997H0.602V1.2H1.352ZM9.992 1.2H10.742V0.449997H9.992V1.2ZM9.992 46V46.75H10.742V46H9.992ZM1.352 46H0.602V46.75H1.352V46ZM1.352 1.2V1.95H9.992V1.2V0.449997H1.352V1.2ZM9.992 1.2H9.242V46H9.992H10.742V1.2H9.992ZM9.992 46V45.25H1.352V46V46.75H9.992V46ZM1.352 46H2.102V1.2H1.352H0.602V46H1.352ZM55.783 1.2H56.533V0.449997H55.783V1.2ZM55.783 46V46.75H56.533V46H55.783ZM46.951 46L46.3163 46.3996L46.5369 46.75H46.951V46ZM27.367 14.896L28.0017 14.4964L26.617 12.2972V14.896H27.367ZM27.367 46V46.75H28.117V46H27.367ZM18.727 46H17.977V46.75H18.727V46ZM18.727 1.2V0.449997H17.977V1.2H18.727ZM27.495 1.2L28.1291 0.799453L27.9083 0.449997H27.495V1.2ZM47.143 32.304L46.5089 32.7045L47.893 34.8956V32.304H47.143ZM47.143 1.2V0.449997H46.393V1.2H47.143ZM55.783 1.2H55.033V46H55.783H56.533V1.2H55.783ZM55.783 46V45.25H46.951V46V46.75H55.783V46ZM46.951 46L47.5857 45.6004L28.0017 14.4964L27.367 14.896L26.7323 15.2956L46.3163 46.3996L46.951 46ZM27.367 14.896H26.617V46H27.367H28.117V14.896H27.367ZM27.367 46V45.25H18.727V46V46.75H27.367V46ZM18.727 46H19.477V1.2H18.727H17.977V46H18.727ZM18.727 1.2V1.95H27.495V1.2V0.449997H18.727V1.2ZM27.495 1.2L26.8609 1.60054L46.5089 32.7045L47.143 32.304L47.7771 31.9035L28.1291 0.799453L27.495 1.2ZM47.143 32.304H47.893V1.2H47.143H46.393V32.304H47.143ZM47.143 1.2V1.95H55.783V1.2V0.449997H47.143V1.2ZM62.301 1.2V0.449997H61.551V1.2H62.301ZM98.653 1.2H99.403V0.449997H98.653V1.2ZM98.653 8.432V9.182H99.403V8.432H98.653ZM84.829 8.432V7.682H84.079V8.432H84.829ZM84.829 46V46.75H85.579V46H84.829ZM76.189 46H75.439V46.75H76.189V46ZM76.189 8.432H76.939V7.682H76.189V8.432ZM62.301 8.432H61.551V9.182H62.301V8.432ZM62.301 1.2V1.95H98.653V1.2V0.449997H62.301V1.2ZM98.653 1.2H97.903V8.432H98.653H99.403V1.2H98.653ZM98.653 8.432V7.682H84.829V8.432V9.182H98.653V8.432ZM84.829 8.432H84.079V46H84.829H85.579V8.432H84.829ZM84.829 46V45.25H76.189V46V46.75H84.829V46ZM76.189 46H76.939V8.432H76.189H75.439V46H76.189ZM76.189 8.432V7.682H62.301V8.432V9.182H76.189V8.432ZM62.301 8.432H63.051V1.2H62.301H61.551V8.432H62.301ZM136.59 8.432V9.182H137.34V8.432H136.59ZM113.742 8.432V7.682H112.992V8.432H113.742ZM113.742 19.824H112.992V20.574H113.742V19.824ZM130.83 19.824H131.58V19.074H130.83V19.824ZM130.83 26.8V27.55H131.58V26.8H130.83ZM113.742 26.8V26.05H112.992V26.8H113.742ZM113.742 38.768H112.992V39.518H113.742V38.768ZM136.59 38.768H137.34V38.018H136.59V38.768ZM136.59 46V46.75H137.34V46H136.59ZM105.102 46H104.352V46.75H105.102V46ZM105.102 1.2V0.449997H104.352V1.2H105.102ZM136.59 1.2H137.34V0.449997H136.59V1.2ZM136.59 8.432V7.682H113.742V8.432V9.182H136.59V8.432ZM113.742 8.432H112.992V19.824H113.742H114.492V8.432H113.742ZM113.742 19.824V20.574H130.83V19.824V19.074H113.742V19.824ZM130.83 19.824H130.08V26.8H130.83H131.58V19.824H130.83ZM130.83 26.8V26.05H113.742V26.8V27.55H130.83V26.8ZM113.742 26.8H112.992V38.768H113.742H114.492V26.8H113.742ZM113.742 38.768V39.518H136.59V38.768V38.018H113.742V38.768ZM136.59 38.768H135.84V46H136.59H137.34V38.768H136.59ZM136.59 46V45.25H105.102V46V46.75H136.59V46ZM105.102 46H105.852V1.2H105.102H104.352V46H105.102ZM105.102 1.2V1.95H136.59V1.2V0.449997H105.102V1.2ZM136.59 1.2H135.84V8.432H136.59H137.34V1.2H136.59ZM167.848 10.224L167.317 10.7544L167.327 10.7636L167.848 10.224ZM152.68 8.432V7.682H151.93V8.432H152.68ZM152.68 21.68H151.93V22.43H152.68V21.68ZM166.44 20.912L166.754 21.593L166.764 21.5881L166.775 21.5828L166.44 20.912ZM168.872 18.608L168.212 18.2507L168.207 18.2611L168.872 18.608ZM171.432 3.12L171.072 3.77842L171.079 3.78228L171.087 3.78599L171.432 3.12ZM176.744 8.176L176.084 8.53236L176.088 8.54028L176.092 8.5481L176.744 8.176ZM177.64 20.016L178.343 20.2753L178.345 20.2694L177.64 20.016ZM174.824 24.496L175.363 25.0176L175.371 25.009L174.824 24.496ZM169.832 27.696L169.555 26.9986L169.55 27.0007L169.832 27.696ZM152.68 28.912V28.162H151.93V28.912H152.68ZM152.68 46V46.75H153.43V46H152.68ZM144.04 46H143.29V46.75H144.04V46ZM144.04 1.2V0.449997H143.29V1.2H144.04ZM167.336 26.032L167.977 25.6434L167.758 25.282H167.336V26.032ZM179.432 46V46.75H180.763L180.073 45.6114L179.432 46ZM169.768 46L169.119 46.3764L169.336 46.75H169.768V46ZM158.184 26.032V25.282H156.881L157.535 26.4084L158.184 26.032ZM169.704 15.024H170.454C170.454 12.8519 169.777 11.044 168.368 9.68445L167.848 10.224L167.327 10.7636C168.393 11.7933 168.954 13.1855 168.954 15.024H169.704ZM167.848 10.224L168.378 9.69367C166.984 8.30026 164.874 7.682 162.216 7.682V8.432V9.182C164.677 9.182 166.321 9.75841 167.317 10.7543L167.848 10.224ZM162.216 8.432V7.682H152.68V8.432V9.182H162.216V8.432ZM152.68 8.432H151.93V21.68H152.68H153.43V8.432H152.68ZM152.68 21.68V22.43H162.216V21.68V20.93H152.68V21.68ZM162.216 21.68V22.43C163.99 22.43 165.515 22.1647 166.754 21.593L166.44 20.912L166.125 20.231C165.145 20.6832 163.854 20.93 162.216 20.93V21.68ZM166.44 20.912L166.775 21.5828C168.008 20.9665 168.943 20.0929 169.536 18.9549L168.872 18.608L168.207 18.2611C167.776 19.0858 167.09 19.7482 166.104 20.2412L166.44 20.912ZM168.872 18.608L169.531 18.9652C170.155 17.814 170.454 16.4925 170.454 15.024H169.704H168.954C168.954 16.2862 168.698 17.354 168.212 18.2508L168.872 18.608ZM162.472 1.2V1.95C166.015 1.95 168.868 2.57613 171.072 3.77842L171.432 3.12L171.791 2.46158C169.302 1.10387 166.181 0.449997 162.472 0.449997V1.2ZM171.432 3.12L171.087 3.78599C173.358 4.962 175.011 6.5459 176.084 8.53236L176.744 8.176L177.403 7.81964C176.172 5.53943 174.284 3.75266 171.776 2.454L171.432 3.12ZM176.744 8.176L176.092 8.5481C177.22 10.5222 177.786 12.6761 177.786 15.024H178.536H179.286C179.286 12.4226 178.656 10.0111 177.395 7.80389L176.744 8.176ZM178.536 15.024H177.786C177.786 16.5964 177.504 18.1748 176.934 19.7626L177.64 20.016L178.345 20.2694C178.97 18.5292 179.286 16.7796 179.286 15.024H178.536ZM177.64 20.016L176.936 19.7567C176.376 21.2763 175.493 22.6848 174.276 23.983L174.824 24.496L175.371 25.009C176.714 23.5765 177.708 21.9984 178.343 20.2753L177.64 20.016ZM174.824 24.496L174.285 23.9744C173.092 25.2069 171.524 26.2196 169.555 26.9986L169.832 27.696L170.108 28.3934C172.235 27.551 173.995 26.4304 175.362 25.0176L174.824 24.496ZM169.832 27.696L169.55 27.0007C167.659 27.7652 165.307 28.162 162.472 28.162V28.912V29.662C165.438 29.662 167.993 29.2481 170.113 28.3913L169.832 27.696ZM162.472 28.912V28.162H152.68V28.912V29.662H162.472V28.912ZM152.68 28.912H151.93V46H152.68H153.43V28.912H152.68ZM152.68 46V45.25H144.04V46V46.75H152.68V46ZM144.04 46H144.79V1.2H144.04H143.29V46H144.04ZM144.04 1.2V1.95H162.472V1.2V0.449997H144.04V1.2ZM167.336 26.032L166.694 26.4206L178.79 46.3886L179.432 46L180.073 45.6114L167.977 25.6434L167.336 26.032ZM179.432 46V45.25H169.768V46V46.75H179.432V46ZM169.768 46L170.416 45.6236L158.832 25.6556L158.184 26.032L157.535 26.4084L169.119 46.3764L169.768 46ZM158.184 26.032V26.782H167.336V26.032V25.282H158.184V26.032ZM206.52 8.432L207.228 8.18472L207.052 7.682H206.52V8.432ZM204.216 8.432V7.682H203.684L203.508 8.18365L204.216 8.432ZM191.032 46V46.75H191.563L191.739 46.2484L191.032 46ZM182.136 46L181.43 45.7469L181.07 46.75H182.136V46ZM198.2 1.2V0.449997H197.672L197.494 0.94685L198.2 1.2ZM212.472 1.2L213.177 0.94685L212.999 0.449997H212.472V1.2ZM228.536 46V46.75H229.601L229.241 45.7469L228.536 46ZM219.64 46L218.931 46.2473L219.107 46.75H219.64V46ZM191.864 28.464V27.714H191.114V28.464H191.864ZM217.976 28.464H218.726V27.714H217.976V28.464ZM217.976 35.696V36.446H218.726V35.696H217.976ZM191.864 35.696H191.114V36.446H191.864V35.696ZM206.52 8.432V7.682H204.216V8.432V9.182H206.52V8.432ZM204.216 8.432L203.508 8.18365L190.324 45.7516L191.032 46L191.739 46.2484L204.923 8.68035L204.216 8.432ZM191.032 46V45.25H182.136V46V46.75H191.032V46ZM182.136 46L182.841 46.2531L198.905 1.45314L198.2 1.2L197.494 0.94685L181.43 45.7469L182.136 46ZM198.2 1.2V1.95H212.472V1.2V0.449997H198.2V1.2ZM212.472 1.2L211.766 1.45314L227.83 46.2531L228.536 46L229.241 45.7469L213.177 0.94685L212.472 1.2ZM228.536 46V45.25H219.64V46V46.75H228.536V46ZM219.64 46L220.348 45.7527L207.228 8.18472L206.52 8.432L205.811 8.67928L218.931 46.2473L219.64 46ZM191.864 28.464V29.214H217.976V28.464V27.714H191.864V28.464ZM217.976 28.464H217.226V35.696H217.976H218.726V28.464H217.976ZM217.976 35.696V34.946H191.864V35.696V36.446H217.976V35.696ZM191.864 35.696H192.614V28.464H191.864H191.114V35.696H191.864ZM232.904 14.384L233.597 14.6717L233.598 14.668L232.904 14.384ZM237.704 7.152L238.229 7.68791L238.234 7.68233L237.704 7.152ZM244.872 2.416L244.593 1.71963L244.59 1.72115L244.872 2.416ZM266.056 4.08L265.658 4.71563L265.667 4.72109L266.056 4.08ZM274.12 13.488L274.33 14.2079L275.149 13.9688L274.807 13.1874L274.12 13.488ZM266.888 15.6L266.224 15.948L266.509 16.4921L267.098 16.3199L266.888 15.6ZM263.368 11.248L262.895 11.8301L262.904 11.8371L263.368 11.248ZM246.664 10.032L247.05 10.6752L247.059 10.6694L246.664 10.032ZM241.672 15.472L241.004 15.1317L240.999 15.1415L241.672 15.472ZM241.672 31.728L240.999 32.0585L241.002 32.0659L241.006 32.0732L241.672 31.728ZM246.664 37.168L247.059 36.5306L247.059 36.5306L246.664 37.168ZM259.016 38.384L259.237 39.1009L259.248 39.0973L259.016 38.384ZM263.752 35.632L264.248 36.1944L264.248 36.1944L263.752 35.632ZM267.464 30.512L267.666 29.7896L267.06 29.6205L266.788 30.1875L267.464 30.512ZM274.568 32.496L275.266 32.7712L275.571 31.9974L274.77 31.7736L274.568 32.496ZM266.376 42.992L266.778 43.6251L266.783 43.6217L266.376 42.992ZM244.872 44.784L244.59 45.4789L244.593 45.4804L244.872 44.784ZM237.704 40.048L237.174 40.5783L237.174 40.5783L237.704 40.048ZM232.904 32.816L232.21 33.1L232.211 33.1037L232.904 32.816ZM231.176 23.6H231.926C231.926 20.316 232.487 17.3433 233.597 14.6717L232.904 14.384L232.211 14.0963C231.017 16.9713 230.426 20.1427 230.426 23.6H231.176ZM232.904 14.384L233.598 14.668C234.714 11.9407 236.258 9.61734 238.229 7.68788L237.704 7.152L237.179 6.61611C235.054 8.69733 233.398 11.1953 232.21 14.1L232.904 14.384ZM237.704 7.152L238.234 7.68233C240.21 5.70646 242.515 4.18315 245.154 3.11085L244.872 2.416L244.59 1.72115C241.768 2.86752 239.294 4.50154 237.174 6.62167L237.704 7.152ZM244.872 2.416L245.151 3.11235C247.829 2.04092 250.721 1.502 253.832 1.502V0.751999V0.0019989C250.543 0.0019989 247.462 0.572406 244.593 1.71964L244.872 2.416ZM253.832 0.751999V1.502C258.314 1.502 262.248 2.57924 265.658 4.71557L266.056 4.08L266.454 3.44443C262.781 1.14343 258.566 0.0019989 253.832 0.0019989V0.751999ZM266.056 4.08L265.667 4.72109C269.11 6.81153 271.698 9.82415 273.433 13.7886L274.12 13.488L274.807 13.1874C272.958 8.95985 270.17 5.70047 266.445 3.43891L266.056 4.08ZM274.12 13.488L273.91 12.7681L266.678 14.8801L266.888 15.6L267.098 16.3199L274.33 14.2079L274.12 13.488ZM266.888 15.6L267.552 15.252C266.571 13.3785 265.333 11.8415 263.832 10.6589L263.368 11.248L262.904 11.8371C264.219 12.8732 265.328 14.2375 266.224 15.948L266.888 15.6ZM263.368 11.248L263.841 10.6659C262.405 9.49916 260.828 8.64222 259.114 8.10081L258.888 8.816L258.662 9.53118C260.19 10.0138 261.6 10.7782 262.895 11.8301L263.368 11.248ZM258.888 8.816L259.114 8.10081C257.421 7.56625 255.702 7.298 253.96 7.298V8.048V8.798C255.546 8.798 257.112 9.04175 258.662 9.53118L258.888 8.816ZM253.96 8.048V7.298C251.102 7.298 248.531 7.99189 246.269 9.39457L246.664 10.032L247.059 10.6694C249.063 9.42677 251.356 8.798 253.96 8.798V8.048ZM246.664 10.032L246.278 9.38888C244.017 10.7456 242.258 12.6673 241.004 15.1317L241.672 15.472L242.34 15.8123C243.475 13.5834 245.044 11.8784 247.05 10.6751L246.664 10.032ZM241.672 15.472L240.999 15.1415C239.788 17.6076 239.194 20.4334 239.194 23.6H239.944H240.694C240.694 20.6226 241.252 18.0298 242.345 15.8025L241.672 15.472ZM239.944 23.6H239.194C239.194 26.7666 239.788 29.5924 240.999 32.0585L241.672 31.728L242.345 31.3975C241.252 29.1702 240.694 26.5774 240.694 23.6H239.944ZM241.672 31.728L241.006 32.0732C242.261 34.493 244.017 36.409 246.269 37.8054L246.664 37.168L247.059 36.5306C245.045 35.2816 243.472 33.571 242.338 31.3828L241.672 31.728ZM246.664 37.168L246.269 37.8054C248.531 39.2081 251.102 39.902 253.96 39.902V39.152V38.402C251.356 38.402 249.063 37.7732 247.059 36.5306L246.664 37.168ZM253.96 39.152V39.902C255.743 39.902 257.503 39.6344 259.237 39.1008L259.016 38.384L258.795 37.6672C257.201 38.1576 255.59 38.402 253.96 38.402V39.152ZM259.016 38.384L259.248 39.0973C261.059 38.5085 262.727 37.5369 264.248 36.1944L263.752 35.632L263.256 35.0696C261.876 36.2871 260.386 37.1502 258.784 37.6707L259.016 38.384ZM263.752 35.632L264.248 36.1944C265.789 34.8349 267.082 33.0407 268.14 30.8365L267.464 30.512L266.788 30.1875C265.798 32.2499 264.616 33.8691 263.256 35.0696L263.752 35.632ZM267.464 30.512L267.262 31.2344L274.366 33.2184L274.568 32.496L274.77 31.7736L267.666 29.7896L267.464 30.512ZM274.568 32.496L273.87 32.2208C272.084 36.7496 269.444 40.1135 265.969 42.3623L266.376 42.992L266.783 43.6217C270.561 41.1772 273.383 37.5437 275.266 32.7712L274.568 32.496ZM266.376 42.992L265.974 42.3589C262.48 44.5789 258.441 45.698 253.832 45.698V46.448V47.198C258.695 47.198 263.019 46.0131 266.778 43.6251L266.376 42.992ZM253.832 46.448V45.698C250.721 45.698 247.829 45.1591 245.151 44.0876L244.872 44.784L244.593 45.4804C247.462 46.6276 250.543 47.198 253.832 47.198V46.448ZM244.872 44.784L245.154 44.0891C242.515 43.0169 240.21 41.4935 238.234 39.5177L237.704 40.048L237.174 40.5783C239.294 42.6985 241.768 44.3325 244.59 45.4788L244.872 44.784ZM237.704 40.048L238.234 39.5177C236.258 37.5417 234.712 35.2143 233.597 32.5283L232.904 32.816L232.211 33.1037C233.4 35.9644 235.054 38.4583 237.174 40.5783L237.704 40.048ZM232.904 32.816L233.598 32.532C232.486 29.8143 231.926 26.8398 231.926 23.6H231.176H230.426C230.426 27.0162 231.018 30.1857 232.21 33.1L232.904 32.816ZM278.364 1.2V0.449997H277.614V1.2H278.364ZM314.716 1.2H315.466V0.449997H314.716V1.2ZM314.716 8.432V9.182H315.466V8.432H314.716ZM300.892 8.432V7.682H300.142V8.432H300.892ZM300.892 46V46.75H301.642V46H300.892ZM292.252 46H291.502V46.75H292.252V46ZM292.252 8.432H293.002V7.682H292.252V8.432ZM278.364 8.432H277.614V9.182H278.364V8.432ZM278.364 1.2V1.95H314.716V1.2V0.449997H278.364V1.2ZM314.716 1.2H313.966V8.432H314.716H315.466V1.2H314.716ZM314.716 8.432V7.682H300.892V8.432V9.182H314.716V8.432ZM300.892 8.432H300.142V46H300.892H301.642V8.432H300.892ZM300.892 46V45.25H292.252V46V46.75H300.892V46ZM292.252 46H293.002V8.432H292.252H291.502V46H292.252ZM292.252 8.432V7.682H278.364V8.432V9.182H292.252V8.432ZM278.364 8.432H279.114V1.2H278.364H277.614V8.432H278.364ZM321.165 1.2V0.449997H320.415V1.2H321.165ZM329.805 1.2H330.555V0.449997H329.805V1.2ZM329.805 46V46.75H330.555V46H329.805ZM321.165 46H320.415V46.75H321.165V46ZM321.165 1.2V1.95H329.805V1.2V0.449997H321.165V1.2ZM329.805 1.2H329.055V46H329.805H330.555V1.2H329.805ZM329.805 46V45.25H321.165V46V46.75H329.805V46ZM321.165 46H321.915V1.2H321.165H320.415V46H321.165ZM369.708 1.2V0.449997H369.173L368.999 0.955271L369.708 1.2ZM378.924 1.2L379.628 1.45848L379.998 0.449997H378.924V1.2ZM362.476 46V46.75H362.999L363.18 46.2585L362.476 46ZM352.044 46L351.339 46.2576L351.519 46.75H352.044V46ZM335.66 1.2V0.449997H334.587L334.955 1.4576L335.66 1.2ZM344.876 1.2L345.584 0.955271L345.41 0.449997H344.876V1.2ZM357.292 37.168L356.583 37.4127L357.292 39.4665L358 37.4127L357.292 37.168ZM369.708 1.2V1.95H378.924V1.2V0.449997H369.708V1.2ZM378.924 1.2L378.219 0.94151L361.771 45.7415L362.476 46L363.18 46.2585L379.628 1.45848L378.924 1.2ZM362.476 46V45.25H352.044V46V46.75H362.476V46ZM352.044 46L352.748 45.7424L336.364 0.942397L335.66 1.2L334.955 1.4576L351.339 46.2576L352.044 46ZM335.66 1.2V1.95H344.876V1.2V0.449997H335.66V1.2ZM344.876 1.2L344.167 1.44472L356.583 37.4127L357.292 37.168L358 36.9233L345.584 0.955271L344.876 1.2ZM357.292 37.168L358 37.4127L370.416 1.44472L369.708 1.2L368.999 0.955271L356.583 36.9233L357.292 37.168ZM416.215 8.432V9.182H416.965V8.432H416.215ZM393.367 8.432V7.682H392.617V8.432H393.367ZM393.367 19.824H392.617V20.574H393.367V19.824ZM410.455 19.824H411.205V19.074H410.455V19.824ZM410.455 26.8V27.55H411.205V26.8H410.455ZM393.367 26.8V26.05H392.617V26.8H393.367ZM393.367 38.768H392.617V39.518H393.367V38.768ZM416.215 38.768H416.965V38.018H416.215V38.768ZM416.215 46V46.75H416.965V46H416.215ZM384.727 46H383.977V46.75H384.727V46ZM384.727 1.2V0.449997H383.977V1.2H384.727ZM416.215 1.2H416.965V0.449997H416.215V1.2ZM416.215 8.432V7.682H393.367V8.432V9.182H416.215V8.432ZM393.367 8.432H392.617V19.824H393.367H394.117V8.432H393.367ZM393.367 19.824V20.574H410.455V19.824V19.074H393.367V19.824ZM410.455 19.824H409.705V26.8H410.455H411.205V19.824H410.455ZM410.455 26.8V26.05H393.367V26.8V27.55H410.455V26.8ZM393.367 26.8H392.617V38.768H393.367H394.117V26.8H393.367ZM393.367 38.768V39.518H416.215V38.768V38.018H393.367V38.768ZM416.215 38.768H415.465V46H416.215H416.965V38.768H416.215ZM416.215 46V45.25H384.727V46V46.75H416.215V46ZM384.727 46H385.477V1.2H384.727H383.977V46H384.727ZM384.727 1.2V1.95H416.215V1.2V0.449997H384.727V1.2ZM416.215 1.2H415.465V8.432H416.215H416.965V1.2H416.215Z" fill="#171717"/>
</svg>
