<svg width="148" height="45" viewBox="0 0 148 45" fill="none" xmlns="http://www.w3.org/2000/svg">
<path d="M25.304 45H11.608L0.152 0.199997H12.312L18.584 31.88L26.264 0.199997H38.68L46.168 31.816L52.504 0.199997H64.6L53.144 45H39.512L32.408 16.008L25.304 45ZM102.933 9.544H80.4685V17.928H97.2365V26.632H80.4685V35.656H102.933V45H69.3325V0.199997H102.933V9.544ZM135.012 13.704C135.012 12.2107 134.542 11.144 133.604 10.504C132.665 9.864 131.321 9.544 129.572 9.544H119.844V17.864H129.444C131.193 17.864 132.558 17.544 133.54 16.904C134.521 16.2213 135.012 15.1547 135.012 13.704ZM108.708 45V0.199997H131.812C134.884 0.199997 137.486 0.690664 139.62 1.672C141.796 2.65333 143.438 4.04 144.548 5.832C145.7 7.58133 146.276 9.65066 146.276 12.04C146.276 14.0453 145.892 15.7307 145.124 17.096C144.398 18.4187 143.353 19.464 141.988 20.232C140.665 21 139.129 21.512 137.38 21.768V22.28C139.513 22.536 141.305 23.112 142.756 24.008C144.249 24.8613 145.38 26.0347 146.148 27.528C146.916 28.9787 147.3 30.7067 147.3 32.712C147.3 35.1867 146.724 37.3413 145.572 39.176C144.462 41.0107 142.798 42.44 140.58 43.464C138.404 44.488 135.716 45 132.516 45H108.708ZM119.844 35.656H130.468C132.26 35.656 133.646 35.272 134.628 34.504C135.609 33.736 136.1 32.6053 136.1 31.112C136.1 29.576 135.588 28.4453 134.564 27.72C133.54 26.952 132.132 26.568 130.34 26.568H119.844V35.656Z" fill="#171717"/>
</svg>
